<?xml version="1.0" encoding="UTF-8" standalone="no"?>
<!-- Created with Inkscape (http://www.inkscape.org/) -->

<svg
   xmlns:dc="http://purl.org/dc/elements/1.1/"
   xmlns:cc="http://creativecommons.org/ns#"
   xmlns:rdf="http://www.w3.org/1999/02/22-rdf-syntax-ns#"
   xmlns:svg="http://www.w3.org/2000/svg"
   xmlns="http://www.w3.org/2000/svg"
   xmlns:sodipodi="http://sodipodi.sourceforge.net/DTD/sodipodi-0.dtd"
   xmlns:inkscape="http://www.inkscape.org/namespaces/inkscape"
   width="210mm"
   height="297mm"
   viewBox="0 0 210 297"
   version="1.1"
   id="svg8"
   inkscape:version="0.92.5 (2060ec1f9f, 2020-04-08)"
   sodipodi:docname="Logo_CC_BY_NC_SA.svg">
  <defs
     id="defs2" />
  <sodipodi:namedview
     id="base"
     pagecolor="#ffffff"
     bordercolor="#666666"
     borderopacity="1.0"
     inkscape:pageopacity="0.0"
     inkscape:pageshadow="2"
     inkscape:zoom="11.313709"
     inkscape:cx="55.969986"
     inkscape:cy="14.003814"
     inkscape:document-units="mm"
     inkscape:current-layer="layer1"
     showgrid="false"
     inkscape:window-width="1920"
     inkscape:window-height="1026"
     inkscape:window-x="0"
     inkscape:window-y="27"
     inkscape:window-maximized="1" />
  <metadata
     id="metadata5">
    <rdf:RDF>
      <cc:Work
         rdf:about="">
        <dc:format>image/svg+xml</dc:format>
        <dc:type
           rdf:resource="http://purl.org/dc/dcmitype/StillImage" />
        <dc:title></dc:title>
      </cc:Work>
    </rdf:RDF>
  </metadata>
  <g
     inkscape:label="Capa 1"
     inkscape:groupmode="layer"
     id="layer1">
    <path
       style="fill:#000000;fill-opacity:1;stroke:#000000;stroke-width:0.0001;stroke-miterlimit:4;stroke-dasharray:none;stroke-opacity:1"
       d="m 0.0465891,296.9558 c -0.03322703,-0.0333 -0.04475711,-0.40775 -0.04475711,-1.45446 v -1.40971 H 0.61603346 1.2302349 l 0.1364042,0.21444 c 0.6094425,0.9581 1.6213271,1.64141 2.7468468,1.85492 0.3861908,0.0733 1.1285442,0.0725 1.5193031,-0.002 1.0740608,-0.20375 2.1405809,-0.9193 2.6928638,-1.80671 l 0.1605169,-0.25791 9.6124753,-0.002 9.612474,-0.002 v -3.22761 -3.2276 l -0.09154,-0.0915 -0.09154,-0.0915 H 13.968362 0.4086776 l -0.0915388,0.0915 -0.0915397,0.0915 v 3.17166 l -0.002755,3.29103 H 0.11566498 l -0.11383299,-0.007 0.00852047,-3.31037 c 0.0077762,-3.02119 0.01387831,-3.20346 0.07798415,-3.29791 0.03731666,-0.055 0.11284,-0.1305 0.16782204,-0.16782 0.0962089,-0.0653 0.61162895,-0.0679 13.71220035,-0.0679 13.100571,0 13.615991,0.003 13.7122,0.0679 0.05499,0.0373 0.130502,0.11284 0.167822,0.16782 0.06458,0.0951 0.06834,0.32466 0.07775,4.75718 0.0073,3.43872 -0.0012,4.67059 -0.03253,4.70834 -0.03489,0.042 -0.369626,0.0511 -1.883906,0.0511 h -1.841477 v -0.29835 c 0,-0.1641 0.01544,-0.29835 0.0343,-0.29835 0.01887,0 0.06239,-0.0846 0.09673,-0.18798 l 0.06243,-0.18797 0.284585,0.0108 0.284585,0.0108 0.06168,0.16782 c 0.06014,0.16363 0.06609,0.16811 0.238882,0.17939 0.133522,0.009 0.172961,-4.8e-4 0.159987,-0.0373 -0.0095,-0.0269 -0.140316,-0.3803 -0.290766,-0.7854 l -0.273546,-0.73656 H 24.65371 24.480336 l -0.286586,0.75707 c -0.157622,0.41638 -0.286586,0.76881 -0.286586,0.78316 0,0.0143 0.25393,0.0261 0.294958,0.0261 0.06837,0 -0.03363,0.0425 -0.03375,0.30019 l -1.5e-4,0.29653 -0.503456,-2e-5 -0.439191,3e-5 0.01088,-0.30388 c 0.01061,-0.29622 -0.153628,-0.28367 0.0455,-0.2855 0.140402,-8.8e-4 0.424465,-0.11052 0.498439,-0.22342 0.03523,-0.0537 0.06558,-0.16947 0.06745,-0.25711 0.0049,-0.22954 -0.138152,-0.36193 -0.501402,-0.46407 -0.365126,-0.10265 -0.415937,-0.13178 -0.401842,-0.23035 0.02857,-0.19986 0.412614,-0.21069 0.507764,-0.0143 0.04061,0.0838 0.07295,0.10041 0.195792,0.10041 0.121096,0 0.14714,-0.0129 0.14714,-0.0728 0,-0.3198 -0.461967,-0.53935 -0.835056,-0.39687 -0.238231,0.091 -0.339698,0.21638 -0.339698,0.41982 0,0.14208 0.0185,0.18441 0.120348,0.27541 0.06623,0.0592 0.217168,0.13437 0.335644,0.16722 0.334824,0.0928 0.416112,0.13165 0.44118,0.21063 0.03983,0.12551 -0.08149,0.21708 -0.287605,0.21708 -0.188283,0 -0.329864,-0.088 -0.329864,-0.20511 0,-0.0414 -0.04351,-0.0559 -0.167822,-0.0559 -0.145514,0 -0.167822,0.0104 -0.167822,0.0782 0,0.20123 0.45074,0.45682 0.678275,0.45682 0.121084,0 0.06935,4e-5 -0.0045,0.28549 l -0.01286,0.29834 H 21.035497 18.85394 l -0.0021,-0.29627 c -0.0019,-0.2759 -0.07064,-0.28453 -4.1e-5,-0.28905 0.355359,-0.0227 0.594306,-0.25989 0.640326,-0.48999 l 0.02361,-0.11809 h -0.172484 c -0.132196,0 -0.172483,0.0137 -0.172483,0.0588 0,0.0953 -0.20725,0.27684 -0.315981,0.27684 -0.254119,0 -0.429895,-0.21349 -0.429895,-0.52212 0,-0.46404 0.368836,-0.68285 0.6601,-0.39158 0.105308,0.10531 0.159116,0.13052 0.278487,0.13052 0.135757,0 0.145961,-0.007 0.123726,-0.0839 -0.170107,-0.58901 -1.045992,-0.6196 -1.323558,-0.0463 -0.119272,0.24639 -0.09728,0.65089 0.04727,0.86932 0.108688,0.16423 0.374121,0.29885 0.586242,0.31332 0.09332,0.006 0.05621,-1.4e-4 0.05648,0.29421 l 2.68e-4,0.29429 -1.081659,-8e-5 H 16.68159 l -0.0083,-0.34898 c -0.0056,-0.23774 -0.04364,-0.24358 0.128271,-0.24771 0.04515,-0.001 0.05673,-0.0909 0.06527,-0.5128 l 0.01038,-0.51278 0.276247,0.44752 c 0.363124,0.58827 0.359051,0.58399 0.542287,0.57051 l 0.151104,-0.0111 v -0.76452 -0.76452 l -0.157432,-0.0114 -0.157433,-0.0114 -0.01039,0.51108 -0.01039,0.51108 -0.316417,-0.50899 -0.316417,-0.50898 h -0.159097 -0.159079 v 0.78316 c 0,0.49726 0.01364,0.78205 0.03729,0.78318 0.172655,0.008 0.127033,-0.031 0.102402,0.14125 -0.0217,0.15182 0.445751,0.47628 -0.06511,0.45545 h -1.97657 -2.02919 l 0.0058,-0.40505 c 0.0035,-0.24031 -0.02566,-0.18142 0.102712,-0.19165 0.04489,-0.004 0.05594,-0.0578 0.05594,-0.29636 v -0.29636 l 0.279704,-0.46411 c 0.153836,-0.25526 0.279703,-0.47432 0.279703,-0.48681 0,-0.0125 -0.08057,-0.0227 -0.179049,-0.0227 H 12.99488 l -0.158589,0.27873 c -0.08722,0.15331 -0.171108,0.28647 -0.186411,0.29593 -0.0153,0.01 -0.107629,-0.11597 -0.20517,-0.27873 l -0.177344,-0.29593 h -0.187967 -0.187967 l 0.103773,0.17714 c 0.05708,0.0974 0.184505,0.3114 0.283176,0.4755 0.175705,0.2922 0.179404,0.30469 0.179474,0.60602 7.5e-5,0.24859 0.01088,0.30526 0.05602,0.30768 0.191223,0.0102 0.139662,-0.0441 0.130483,0.19604 l -0.01531,0.40066 -0.730518,-1e-5 h -0.671288 v -0.29241 l 0.03281,-0.30212 0.170991,-0.0359 c 0.268,-0.06 0.392897,-0.19926 0.392897,-0.43816 0,-0.1374 -0.02064,-0.18848 -0.113844,-0.28168 l -0.113844,-0.11384 0.07655,-0.0814 c 0.09272,-0.0987 0.102956,-0.33937 0.01951,-0.45851 -0.08144,-0.11627 -0.277023,-0.15848 -0.735454,-0.15872 l -0.400908,-2e-4 v 0.78316 0.78318 h 0.279703 l 0.424399,0.002 -0.03281,0.30212 v 0.29241 L 5.6033639,297 c -4.2374029,5.9e-4 -5.52237101,-0.0104 -5.5567748,-0.0448 z m 10.8450339,-1.05542 v -0.20512 h 0.215465 c 0.258567,0 0.381237,0.0703 0.381237,0.21842 0,0.15632 -0.06348,0.19181 -0.343103,0.19181 h -0.253599 z m 13.574941,-0.12329 c 0,-0.0674 0.158002,-0.49205 0.183082,-0.49205 0.01488,0 0.05746,0.0965 0.09461,0.21443 0.03715,0.11794 0.07557,0.23541 0.08539,0.26106 0.01283,0.0335 -0.0356,0.0466 -0.172619,0.0466 -0.104753,0 -0.190459,-0.0135 -0.190459,-0.0301 z m -13.574941,-0.49205 v -0.18647 h 0.165395 c 0.251641,0 0.356719,0.0524 0.356719,0.17808 0,0.15413 -0.06391,0.19485 -0.305809,0.19485 h -0.216305 z m -6.7265754,0.054 c -0.7506003,-0.14918 -1.292281,-0.45298 -1.8882895,-1.05908 -0.4208523,-0.42798 -0.6656901,-0.81602 -0.8420942,-1.33465 -0.3148732,-0.92572 -0.2356595,-2.00022 0.2088483,-2.83294 0.5285439,-0.99014 1.4125096,-1.6672 2.4602676,-1.88441 0.4614029,-0.0956 1.2829594,-0.0764 1.7232897,0.0403 0.9754501,0.25859 1.8281439,0.96188 2.2993689,1.89649 0.4786784,0.94938 0.4646708,2.33472 -0.03328,3.29107 -0.5507192,1.0577 -1.7016411,1.8295 -2.8739829,1.92727 l -0.4064292,0.0138 v -0.31185 -0.31185 l 0.3636017,-0.0255 c 1.2334204,-0.12494 2.3188055,-1.06193 2.6076899,-2.25115 0.085126,-0.35041 0.0832,-1.09941 -0.00369,-1.44439 -0.1391753,-0.55247 -0.5291708,-1.1884 -0.9396619,-1.53222 -0.6164627,-0.51633 -1.1864919,-0.72431 -1.9837604,-0.72378 -0.8825199,5.7e-4 -1.5676723,0.30557 -2.1817234,0.97118 -1.2782462,1.38559 -0.9952095,3.49273 0.6084989,4.53016 0.4200441,0.27172 0.7848985,0.40031 1.2773121,0.4502 l 0.2517331,0.0255 v 0.31185 0.31185 l -0.1957924,-0.004 c -0.1076853,-0.002 -0.3110387,-0.0264 -0.4518956,-0.0543 z m 13.8124084,-2.17801 v -0.22208 l 0.233074,-0.004 c 0.416431,-0.003 0.965751,-0.21861 1.3349,-0.52581 0.257748,-0.2145 0.547905,-0.58039 0.498258,-0.62831 -0.01856,-0.0179 -0.340403,-0.16818 -0.715221,-0.33395 l -0.681489,-0.30139 h -0.483943 c -0.538344,0 -0.536241,-8.8e-4 -0.398657,0.24165 0.182371,0.322 0.5611,0.41203 1.093072,0.25983 0.06989,-0.02 0.08275,3.7e-4 0.121205,0.19182 0.02366,0.11781 0.04302,0.22683 0.04302,0.24227 0,0.0155 -0.08811,0.0588 -0.195792,0.0963 -0.284565,0.0992 -0.769461,0.0896 -1.016256,-0.0201 -0.402249,-0.17885 -0.633319,-0.421 -0.76076,-0.79721 -0.06243,-0.18427 -0.07447,-0.1966 -0.202886,-0.20749 -0.132105,-0.0112 -0.13652,-0.0164 -0.13652,-0.1585 0,-0.14305 0.0034,-0.14692 0.130528,-0.14692 0.120169,0 0.130528,-0.009 0.130528,-0.11188 0,-0.10266 -0.01059,-0.11188 -0.128485,-0.11188 -0.126358,0 -0.128674,-0.003 -0.139852,-0.17305 l -0.01136,-0.17305 -0.316998,-0.14166 c -0.174348,-0.0779 -0.327591,-0.14269 -0.34054,-0.14394 -0.03832,-0.004 -0.106245,0.31236 -0.129659,0.60336 -0.04729,0.58772 0.187382,1.19532 0.63794,1.65173 0.371393,0.37622 0.766927,0.58034 1.296041,0.66882 l 0.139852,0.0234 v 0.22208 0.22207 h -0.14134 c -0.205658,0 -0.548233,-0.0964 -0.846946,-0.23822 -1.525328,-0.72439 -2.023005,-2.62494 -1.04592,-3.9942 0.435182,-0.60985 1.139955,-1.03331 1.81378,-1.08981 l 0.369598,-0.0217 v 0.22902 0.22902 l -0.424008,0.0423 c -0.467447,0.0906 -0.768706,0.25461 -1.133005,0.61668 -0.169221,0.16819 -0.307674,0.32167 -0.307674,0.34106 0,0.0326 0.819525,0.41759 0.888895,0.41759 0.01696,0 0.05438,-0.044 0.08315,-0.0977 0.08512,-0.15905 0.363313,-0.37903 0.583548,-0.46143 0.277117,-0.10368 0.581206,-0.13053 0.85063,-0.0751 0.357111,0.0735 0.353601,0.0692 0.287291,0.3464 l -0.05665,0.23677 -0.189098,-0.0491 c -0.227781,-0.0591 -0.368846,-0.0616 -0.555808,-0.01 -0.14603,0.0405 -0.400204,0.26177 -0.400204,0.34831 0,0.0958 0.301203,0.17164 0.681858,0.17164 h 0.362368 v 0.1633 0.16329 l 0.722368,0.32153 c 0.397303,0.17683 0.731079,0.32152 0.741725,0.32152 0.07455,0 0.09285,-0.82064 0.02466,-1.10561 -0.02382,-0.0996 -0.10235,-0.30622 -0.174504,-0.45924 -0.174971,-0.37105 -0.622155,-0.82356 -0.988131,-0.99988 -0.275524,-0.13275 -0.638687,-0.23089 -0.857559,-0.23175 l -0.139852,-5.5e-4 v -0.22902 -0.22902 l 0.307674,0.0205 c 0.608876,0.0405 1.096153,0.2768 1.594909,0.77317 0.35154,0.34987 0.527848,0.64159 0.676193,1.11882 0.125334,0.40321 0.125295,1.12665 -7.5e-5,1.52773 -0.228104,0.72971 -0.676091,1.26821 -1.348001,1.62037 -0.310326,0.16265 -0.606482,0.24745 -0.974763,0.2791 l -0.405109,0.004 z m -6.630269,0.14676 c -0.511705,-0.13406 -0.975914,-0.43724 -1.3619977,-0.88953 -0.2335945,-0.27365 -0.3694894,-0.51441 -0.497395,-0.88123 -0.09493,-0.27223 -0.1039607,-0.34403 -0.1031955,-0.82046 7.458e-4,-0.46494 0.011732,-0.55477 0.1003363,-0.82046 0.1382396,-0.41453 0.3335606,-0.72895 0.6608129,-1.06379 0.306038,-0.31313 0.660958,-0.54226 1.044227,-0.67415 0.332089,-0.11428 1.129066,-0.14302 1.510398,-0.0544 0.774093,0.17976 1.525832,0.82183 1.836596,1.56862 0.248964,0.59829 0.25409,1.45161 0.01239,2.06294 -0.222676,0.56322 -0.717514,1.08892 -1.302876,1.38415 -0.275847,0.13912 -0.730374,0.26364 -0.962309,0.26364 l -0.273738,4e-5 v -0.21947 -0.21946 l 0.436654,-0.0544 c 0.806332,-0.15223 1.484471,-0.74786 1.731167,-1.52054 0.108659,-0.34033 0.108659,-0.96495 0,-1.30528 -0.112271,-0.35165 -0.324357,-0.6843 -0.605209,-0.94929 -0.311802,-0.29418 -0.583001,-0.4493 -0.949402,-0.54301 -0.932027,-0.23836 -1.843118,0.10514 -2.406469,0.90732 -0.3839326,0.54671 -0.4914051,1.28012 -0.2797247,1.90891 0.2776067,0.82461 1.0049907,1.42285 1.8598737,1.52966 l 0.21311,0.0266 v 0.21946 0.21946 l -0.195793,-0.002 c -0.107686,-8.8e-4 -0.318042,-0.034 -0.467458,-0.0733 z m 12.163636,0.002 c -0.933527,-0.24474 -1.728653,-1.06524 -1.936157,-1.99794 -0.098,-0.44048 -0.06358,-1.05741 0.08232,-1.47556 0.273284,-0.78322 0.98054,-1.47322 1.732704,-1.69041 0.71733,-0.20715 1.582585,-0.10949 2.188839,0.24703 0.285471,0.16789 0.777456,0.66684 0.949505,0.96295 0.353838,0.60901 0.446693,1.4096 0.24705,2.13004 -0.192793,0.69571 -0.711869,1.3051 -1.394822,1.6375 -0.305441,0.14867 -0.688568,0.25866 -0.904374,0.25963 l -0.233086,5.5e-4 v -0.22376 -0.22377 l 0.251733,-0.0189 c 0.889576,-0.14204 1.642999,-0.80789 1.854698,-1.63913 0.07261,-0.28512 0.07261,-0.83667 0,-1.1218 -0.205945,-0.80864 -0.900517,-1.46143 -1.726617,-1.62275 -0.339497,-0.0663 -0.858612,-0.027 -1.177128,0.0891 -0.85473,0.31162 -1.477608,1.20279 -1.477608,2.11404 0,0.28206 0.119643,0.73457 0.269093,1.01776 0.17667,0.33477 0.611728,0.75609 0.961603,0.93124 0.275036,0.13768 0.684614,0.24853 0.923021,0.24981 l 0.121205,6.4e-4 v 0.22377 0.22375 l -0.233086,-0.002 c -0.128198,-8.8e-4 -0.352699,-0.0334 -0.498892,-0.0718 z M 3.4701593,292.82763 c -0.2637284,-0.0935 -0.5247708,-0.36532 -0.6001024,-0.62482 -0.080447,-0.27711 -0.062259,-0.70117 0.04021,-0.93758 0.2903197,-0.66985 1.2944806,-0.81668 1.7717688,-0.25907 l 0.1305555,0.15252 -0.2220539,0.12514 -0.2220538,0.12513 -0.1292988,-0.14108 c -0.1166481,-0.12729 -0.1475832,-0.14109 -0.3161845,-0.14109 -0.2426945,0 -0.3899805,0.12956 -0.4548911,0.40013 -0.1064435,0.44371 0.071239,0.86428 0.3749888,0.8876 0.2409611,0.0185 0.3103298,-0.004 0.4370965,-0.13778 l 0.1289055,-0.13668 0.2030297,0.0996 c 0.229161,0.11239 0.2296289,0.13621 0.00704,0.35835 -0.2717721,0.27121 -0.7578226,0.36836 -1.1489993,0.22965 z m 2.2189802,0.0379 c -0.5316713,-0.14112 -0.7905704,-0.54432 -0.757244,-1.17928 0.013227,-0.25199 0.035619,-0.34018 0.1287095,-0.50688 0.1261598,-0.22592 0.3717136,-0.41725 0.6226665,-0.48517 0.3371797,-0.0913 0.8219646,0.0243 1.043803,0.2487 0.2032372,0.20563 0.2002918,0.22549 -0.052365,0.35302 -0.2171428,0.10962 -0.230548,0.1119 -0.2793243,0.0476 -0.028179,-0.0372 -0.051767,-0.0783 -0.052417,-0.0913 -6.526e-4,-0.013 -0.062136,-0.0527 -0.1366284,-0.088 -0.3999126,-0.18977 -0.748982,0.20784 -0.6663313,0.75899 0.045997,0.30672 0.1469747,0.43923 0.3736749,0.49036 0.1843968,0.0416 0.3675017,-0.0177 0.4845659,-0.15677 l 0.098554,-0.11713 0.2021932,0.0992 c 0.111206,0.0545 0.2021924,0.11311 0.2021924,0.13015 0,0.077 -0.2755909,0.34139 -0.4329822,0.41537 -0.1890643,0.0889 -0.591983,0.13087 -0.7790658,0.0812 z M 11.6375,291.79802 v -0.65264 H 11.488325 11.33915 v -0.59539 c 0,-0.55048 0.0055,-0.59829 0.07213,-0.63399 0.09456,-0.0506 1.178328,-0.0506 1.272892,0 0.06669,0.0357 0.07214,0.0836 0.07214,0.63399 v 0.59539 h -0.149176 -0.149175 v 0.65264 0.65264 H 12.04773 11.637498 Z m 12.221828,0.35322 c -0.41047,-0.10347 -0.698899,-0.38736 -0.82301,-0.81007 l -0.05748,-0.19579 h 0.333634 c 0.276452,0 0.333634,0.01 0.333634,0.0578 0,0.10763 0.114921,0.2808 0.234897,0.35395 0.08079,0.0492 0.186941,0.0728 0.328318,0.0729 0.274256,1.9e-4 0.427974,-0.10077 0.567656,-0.37283 0.09848,-0.19181 0.104471,-0.22925 0.09262,-0.57853 -0.01107,-0.32625 -0.02551,-0.39537 -0.114311,-0.54688 -0.12736,-0.21732 -0.342517,-0.31493 -0.612618,-0.27791 -0.268822,0.0369 -0.420237,0.16499 -0.479431,0.40575 -0.02207,0.0898 -0.01436,0.10256 0.06166,0.10256 0.07524,0 0.05469,0.0324 -0.153415,0.24244 l -0.240292,0.24245 -0.234313,-0.23223 c -0.198099,-0.19634 -0.223846,-0.23611 -0.166584,-0.25729 0.03802,-0.0141 0.089,-0.0962 0.116224,-0.18736 0.07958,-0.26636 0.176465,-0.42432 0.358584,-0.58462 0.24109,-0.21222 0.468377,-0.28014 0.872809,-0.2608 0.407275,0.0194 0.668391,0.13601 0.912116,0.4071 0.25847,0.28748 0.337713,0.52679 0.338644,1.02273 7.31e-4,0.38995 -0.0055,0.42382 -0.121572,0.65952 -0.151147,0.30697 -0.415436,0.5546 -0.7092,0.66451 -0.243291,0.091 -0.631918,0.12466 -0.838564,0.0726 z m -11.942125,-2.45686 c -0.139265,-0.0596 -0.222068,-0.18862 -0.222068,-0.3459 0,-0.1221 0.02251,-0.17012 0.120946,-0.25807 0.07587,-0.0678 0.162203,-0.10807 0.231651,-0.10807 0.06944,0 0.155777,0.0403 0.23165,0.10807 0.09918,0.0886 0.120945,0.1356 0.120945,0.26105 0,0.24942 -0.263952,0.43677 -0.483124,0.34292 z"
       id="path880"
       inkscape:connector-curvature="0"
       sodipodi:nodetypes="csccccccccccccccccccccccsccsccscscssccccccccccccssscccsscccccsscscccsssssscccssccsssssscccsscccsscccccccccccccccssscccsssccssccccccccccssccccccsccccccccccccsccccssscccsccsccccsssccccssccsccccccccccccccccccccccscccscccsccccssssccccscccccscsccccccsscccccccssccccsccccccccccccccccccccscccscsccccccccccccccccccccccccccccccccccscccccccccccccccccsccccccccccccccccccccccscccccccsccscccccccccccsscccccccsccccccccccccccscscsc" />
  </g>
</svg>
