%TF.GenerationSoftware,KiCad,Pcbnew,5.99.0-unknown-52d8b70d3~93~ubuntu20.04.1*%
%TF.CreationDate,2020-11-25T22:41:27+01:00*%
%TF.ProjectId,ZX Dandanator Mini 2.1b,5a582044-616e-4646-916e-61746f72204d,rev?*%
%TF.SameCoordinates,PX6a2f1b0PY2a6a278*%
%TF.FileFunction,Soldermask,Top*%
%TF.FilePolarity,Negative*%
%FSLAX46Y46*%
G04 Gerber Fmt 4.6, Leading zero omitted, Abs format (unit mm)*
G04 Created by KiCad (PCBNEW 5.99.0-unknown-52d8b70d3~93~ubuntu20.04.1) date 2020-11-25 22:41:27*
%MOMM*%
%LPD*%
G01*
G04 APERTURE LIST*
%ADD10C,1.600000*%
%ADD11R,2.400000X1.600000*%
%ADD12O,2.400000X1.600000*%
%ADD13C,1.998980*%
%ADD14O,1.600000X1.600000*%
%ADD15O,1.778000X5.080000*%
%ADD16R,1.778000X7.620000*%
%ADD17C,1.699260*%
%ADD18R,1.600000X1.600000*%
%ADD19C,2.000000*%
%ADD20C,4.000000*%
%ADD21R,2.400000X1.900000*%
%ADD22O,2.400000X1.900000*%
%ADD23R,1.700000X1.700000*%
%ADD24O,1.700000X1.700000*%
%ADD25C,1.574800*%
%ADD26C,3.200000*%
G04 APERTURE END LIST*
D10*
%TO.C,C1*%
X77560000Y-49530000D03*
X77560000Y-44530000D03*
%TD*%
%TO.C,C2*%
X7620000Y-56381000D03*
X12620000Y-56381000D03*
%TD*%
%TO.C,C3*%
X80790000Y-56095000D03*
X85790000Y-56095000D03*
%TD*%
%TO.C,C4*%
X53340000Y-41910000D03*
X58340000Y-41910000D03*
%TD*%
%TO.C,C5*%
X30226000Y-36830000D03*
X25226000Y-36830000D03*
%TD*%
D11*
%TO.C,U1*%
X66040000Y-39370000D03*
D12*
X66040000Y-41910000D03*
X66040000Y-44450000D03*
X66040000Y-46990000D03*
X66040000Y-49530000D03*
X66040000Y-52070000D03*
X66040000Y-54610000D03*
X66040000Y-57150000D03*
X66040000Y-59690000D03*
X73660000Y-59690000D03*
X73660000Y-57150000D03*
X73660000Y-54610000D03*
X73660000Y-52070000D03*
X73660000Y-49530000D03*
X73660000Y-46990000D03*
X73660000Y-44450000D03*
X73660000Y-41910000D03*
X73660000Y-39370000D03*
%TD*%
D13*
%TO.C,SW2*%
X80403560Y-60960000D03*
X84904440Y-67462400D03*
X80403560Y-67462400D03*
X84904440Y-60960000D03*
%TD*%
D10*
%TO.C,R2*%
X82654000Y-36830000D03*
D14*
X82654000Y-46990000D03*
%TD*%
D11*
%TO.C,U2*%
X21844000Y-40894000D03*
D12*
X21844000Y-43434000D03*
X21844000Y-45974000D03*
X21844000Y-48514000D03*
X21844000Y-51054000D03*
X21844000Y-53594000D03*
X21844000Y-56134000D03*
X21844000Y-58674000D03*
X21844000Y-61214000D03*
X21844000Y-63754000D03*
X21844000Y-66294000D03*
X21844000Y-68834000D03*
X29464000Y-68834000D03*
X29464000Y-66294000D03*
X29464000Y-63754000D03*
X29464000Y-61214000D03*
X29464000Y-58674000D03*
X29464000Y-56134000D03*
X29464000Y-53594000D03*
X29464000Y-51054000D03*
X29464000Y-48514000D03*
X29464000Y-45974000D03*
X29464000Y-43434000D03*
X29464000Y-40894000D03*
%TD*%
D15*
%TO.C,J1*%
X14907000Y-77000000D03*
X17447000Y-77000000D03*
X19987000Y-77000000D03*
X22527000Y-77000000D03*
X27607000Y-77000000D03*
X30147000Y-77000000D03*
X32687000Y-77000000D03*
X35227000Y-77000000D03*
X37767000Y-77000000D03*
X40307000Y-77000000D03*
X42847000Y-77000000D03*
X45387000Y-77000000D03*
X47927000Y-77000000D03*
X50467000Y-77000000D03*
X53007000Y-77000000D03*
X55547000Y-77000000D03*
X58087000Y-77000000D03*
X60627000Y-77000000D03*
X63167000Y-77000000D03*
X65707000Y-77000000D03*
X68247000Y-77000000D03*
X70787000Y-77000000D03*
X73327000Y-77000000D03*
X75867000Y-77000000D03*
X78407000Y-77000000D03*
X80947000Y-77000000D03*
X83487000Y-77000000D03*
%TD*%
D16*
%TO.C,J2*%
X15034000Y-4191000D03*
X17574000Y-4191000D03*
X20114000Y-4191000D03*
X22654000Y-4191000D03*
X27734000Y-4191000D03*
X30274000Y-4191000D03*
X32814000Y-4191000D03*
X35354000Y-4191000D03*
X37894000Y-4191000D03*
X40434000Y-4191000D03*
X42974000Y-4191000D03*
X45514000Y-4191000D03*
X48054000Y-4191000D03*
X50594000Y-4191000D03*
X53134000Y-4191000D03*
X55674000Y-4191000D03*
X58214000Y-4191000D03*
X60754000Y-4191000D03*
X63294000Y-4191000D03*
X65834000Y-4191000D03*
X68374000Y-4191000D03*
X70914000Y-4191000D03*
X73454000Y-4191000D03*
X75994000Y-4191000D03*
X78534000Y-4191000D03*
X81074000Y-4191000D03*
X83614000Y-4191000D03*
%TD*%
D10*
%TO.C,R1*%
X36830000Y-44450000D03*
D14*
X36830000Y-54610000D03*
%TD*%
D13*
%TO.C,SW1*%
X7909560Y-60960000D03*
X12410440Y-67462400D03*
X7909560Y-67462400D03*
X12410440Y-60960000D03*
%TD*%
D17*
%TO.C,U3*%
X53340000Y-49530000D03*
X50800000Y-46990000D03*
X50800000Y-49530000D03*
X48260000Y-46990000D03*
X45720000Y-49530000D03*
X48260000Y-49530000D03*
X45720000Y-52070000D03*
X48260000Y-52070000D03*
X45720000Y-54610000D03*
X48260000Y-54610000D03*
X45720000Y-57150000D03*
X48260000Y-57150000D03*
X45720000Y-59690000D03*
X48260000Y-62230000D03*
X48260000Y-59690000D03*
X50800000Y-62230000D03*
X50800000Y-59690000D03*
X53340000Y-62230000D03*
X53340000Y-59690000D03*
X55880000Y-62230000D03*
X58420000Y-59690000D03*
X55880000Y-59690000D03*
X58420000Y-57150000D03*
X55880000Y-57150000D03*
X58420000Y-54610000D03*
X55880000Y-54610000D03*
X58420000Y-52070000D03*
X55880000Y-52070000D03*
X58420000Y-49530000D03*
X55880000Y-46990000D03*
X55880000Y-49530000D03*
X53340000Y-46990000D03*
%TD*%
D18*
%TO.C,D1*%
X66040000Y-64770000D03*
D14*
X73660000Y-64770000D03*
%TD*%
D19*
%TO.C,H3*%
X48768000Y-32893000D03*
%TD*%
D18*
%TO.C,D2*%
X7620000Y-39370000D03*
D14*
X7620000Y-31750000D03*
%TD*%
D20*
%TO.C,DB1*%
X38123000Y-13360000D03*
X38123000Y-38360000D03*
D21*
X36703000Y-31400000D03*
D22*
X36703000Y-28630000D03*
X36703000Y-25860000D03*
X36703000Y-23090000D03*
X36703000Y-20320000D03*
X39543000Y-30015000D03*
X39543000Y-27245000D03*
X39543000Y-24475000D03*
X39543000Y-21705000D03*
%TD*%
D23*
%TO.C,J3*%
X50673000Y-16891000D03*
D24*
X50673000Y-19431000D03*
X50673000Y-21971000D03*
X50673000Y-24511000D03*
X50673000Y-27051000D03*
X50673000Y-29591000D03*
%TD*%
D25*
%TO.C,A1*%
X17780000Y-48260000D03*
X17780000Y-45720000D03*
X17780000Y-43180000D03*
X17780000Y-40640000D03*
X17780000Y-38100000D03*
X17780000Y-35560000D03*
X17780000Y-33020000D03*
X17780000Y-30480000D03*
X17780000Y-27940000D03*
X17780000Y-25400000D03*
X17780000Y-22860000D03*
X17780000Y-20320000D03*
X17780000Y-17780000D03*
X17780000Y-15240000D03*
X17780000Y-12700000D03*
X2540000Y-12700000D03*
X2540000Y-15240000D03*
X2540000Y-17780000D03*
X2540000Y-20320000D03*
X2540000Y-22860000D03*
X2540000Y-25400000D03*
X2540000Y-27940000D03*
X2540000Y-30480000D03*
X2540000Y-33020000D03*
X2540000Y-35560000D03*
X2540000Y-38100000D03*
X2540000Y-40640000D03*
X2540000Y-43180000D03*
X2540000Y-45720000D03*
X2540000Y-48260000D03*
%TD*%
D10*
%TO.C,R3*%
X12700000Y-29210000D03*
D14*
X12700000Y-39370000D03*
%TD*%
D19*
%TO.C,H5*%
X48768000Y-12827000D03*
%TD*%
%TO.C,H4*%
X86868000Y-32893000D03*
%TD*%
D26*
%TO.C,H2*%
X3810000Y-3810000D03*
%TD*%
%TO.C,H1*%
X48387000Y-38735000D03*
%TD*%
D19*
%TO.C,H6*%
X86868000Y-12827000D03*
%TD*%
D23*
%TO.C,J4*%
X3175000Y-55499000D03*
D24*
X3175000Y-58039000D03*
X3175000Y-60579000D03*
X3175000Y-63119000D03*
X3175000Y-65659000D03*
%TD*%
M02*
