M48
; DRILL file {KiCad 5.99.0-unknown-2f00a2ada~93~ubuntu20.04.1} date Thu Nov 26 23:00:53 2020
; FORMAT={-:-/ absolute / metric / decimal}
; #@! TF.CreationDate,2020-11-26T23:00:53+01:00
; #@! TF.GenerationSoftware,Kicad,Pcbnew,5.99.0-unknown-2f00a2ada~93~ubuntu20.04.1
; #@! TF.FileFunction,Plated,1,2,PTH
FMAT,2
METRIC
T1C0.400
T2C0.800
T3C1.000
T4C1.001
T5C1.600
T6C3.200
%
G90
G05
T1
X5.08Y-33.401
X5.334Y-35.052
X12.827Y-9.017
X14.605Y-72.39
X15.24Y-39.37
X15.875Y-42.926
X16.51Y-64.135
X19.685Y-36.83
X20.661Y-59.927
X21.274Y-72.11
X21.59Y-26.145
X22.385Y-23.495
X22.605Y-72.825
X22.86Y-33.274
X23.036Y-12.771
X23.184Y-44.872
X24.13Y-15.24
X25.314Y-69.074
X25.378Y-12.182
X25.851Y-58.488
X25.917Y-15.162
X26.246Y-65.024
X26.271Y-51.054
X26.874Y-66.643
X30.61Y-11.154
X30.86Y-9.982
X31.078Y-9.054
X31.166Y-55.812
X31.639Y-59.944
X32.091Y-12.208
X32.836Y-60.938
X33.4Y-70.286
X33.778Y-52.584
X33.798Y-68.964
X34.08Y-12.098
X34.486Y-52.142
X35.179Y-69.41
X35.201Y-66.387
X35.256Y-67.262
X35.56Y-71.755
X35.788Y-9.8
X36.613Y-66.057
X36.888Y-9.105
X37.767Y-71.12
X38.139Y-69.528
X38.192Y-59.694
X38.241Y-58.577
X38.311Y-61.623
X38.801Y-71.259
X39.246Y-46.131
X39.634Y-62.343
X39.634Y-64.185
X39.893Y-44.738
X39.927Y-69.923
X40.084Y-65.024
X40.64Y-70.373
X41.709Y-56.324
X42.073Y-73.851
X42.164Y-8.519
X42.317Y-59.309
X42.967Y-50.007
X43.615Y-73.276
X43.794Y-9.084
X43.85Y-58.42
X44.057Y-61.467
X44.504Y-50.969
X44.564Y-67.926
X44.693Y-45.388
X44.831Y-44.196
X46.355Y-27.813
X46.488Y-65.523
X47.227Y-73.513
X47.498Y-29.591
X48.641Y-19.431
X48.767Y-9.023
X49.784Y-42.164
X49.814Y-65.192
X50.097Y-50.877
X50.419Y-73.66
X50.895Y-9.337
X51.506Y-55.8
X51.586Y-67.607
X52.324Y-35.941
X53.213Y-33.02
X53.34Y-72.365
X54.61Y-39.37
X54.737Y-32.385
X55.857Y-65.394
X56.515Y-18.034
X56.769Y-43.18
X56.896Y-12.446
X58.547Y-37.465
X59.473Y-50.559
X59.714Y-69.402
X59.895Y-56.987
X60.123Y-18.415
X60.32Y-69.95
X61.468Y-73.533
X61.713Y-8.89
X62.551Y-63.583
X62.738Y-33.782
X63.238Y-55.832
X63.881Y-73.533
X64.011Y-8.89
X64.325Y-43.714
X64.325Y-38.671
X64.546Y-62.236
X65.89Y-13.231
X65.89Y-28.321
X67.577Y-36.627
X68.71Y-8.894
X68.891Y-73.025
X69.992Y-33.655
X70.131Y-72.39
X70.272Y-8.89
X71.016Y-41.974
X71.755Y-71.12
X71.84Y-66.675
X72.254Y-8.89
X73.025Y-36.195
X74.897Y-8.89
X74.93Y-66.675
X75.608Y-72.39
X75.994Y-32.814
X76.2Y-52.07
X76.2Y-58.42
X77.576Y-69.281
X78.194Y-53.41
X79.035Y-57.15
X80.01Y-10.16
X81.28Y-53.975
X82.55Y-39.37
T2
X80.79Y-56.095
X85.79Y-56.095
X25.226Y-36.83
X30.226Y-36.83
X66.04Y-39.37
X66.04Y-41.91
X12.7Y-29.21
X53.34Y-41.91
X58.34Y-41.91
X12.7Y-39.37
X66.04Y-44.45
X66.04Y-46.99
X66.04Y-49.53
X66.04Y-52.07
X66.04Y-54.61
X66.04Y-57.15
X66.04Y-59.69
X73.66Y-39.37
X73.66Y-41.91
X73.66Y-44.45
X73.66Y-46.99
X73.66Y-49.53
X73.66Y-52.07
X73.66Y-54.61
X73.66Y-57.15
X73.66Y-59.69
X82.654Y-36.83
X21.844Y-63.754
X82.654Y-46.99
X21.844Y-40.894
X21.844Y-43.434
X21.844Y-45.974
X21.844Y-48.514
X21.844Y-51.054
X21.844Y-53.594
X21.844Y-56.134
X21.844Y-58.674
X21.844Y-61.214
X21.844Y-66.294
X21.844Y-68.834
X29.464Y-40.894
X29.464Y-43.434
X29.464Y-45.974
X29.464Y-48.514
X29.464Y-51.054
X29.464Y-53.594
X29.464Y-56.134
X29.464Y-58.674
X29.464Y-61.214
X29.464Y-63.754
X29.464Y-66.294
X29.464Y-68.834
X2.54Y-15.24
X77.56Y-44.53
X77.56Y-49.53
X2.54Y-12.7
X7.62Y-56.381
X17.78Y-30.48
X7.62Y-31.75
X7.62Y-39.37
X17.78Y-12.7
X17.78Y-15.24
X17.78Y-17.78
X17.78Y-20.32
X17.78Y-22.86
X17.78Y-25.4
X17.78Y-27.94
X17.78Y-33.02
X17.78Y-35.56
X17.78Y-38.1
X17.78Y-48.26
X66.04Y-64.77
X73.66Y-64.77
X2.54Y-20.32
X17.78Y-40.64
X17.78Y-43.18
X17.78Y-45.72
X12.62Y-56.381
X36.83Y-44.45
X36.83Y-54.61
X2.54Y-17.78
X2.54Y-22.86
X2.54Y-25.4
X2.54Y-27.94
X2.54Y-30.48
X2.54Y-33.02
X2.54Y-35.56
X2.54Y-38.1
X2.54Y-40.64
X2.54Y-43.18
X2.54Y-45.72
X2.54Y-48.26
T3
X50.673Y-16.891
X50.673Y-19.431
X50.673Y-21.971
X50.673Y-24.511
X50.673Y-27.051
X50.673Y-29.591
X3.175Y-55.499
X3.175Y-58.039
X3.175Y-60.579
X3.175Y-63.119
X3.175Y-65.659
T4
X7.91Y-60.96
X7.91Y-67.462
X12.41Y-60.96
X12.41Y-67.462
X45.72Y-49.53
X45.72Y-52.07
X45.72Y-54.61
X45.72Y-57.15
X45.72Y-59.69
X48.26Y-46.99
X48.26Y-49.53
X48.26Y-52.07
X48.26Y-54.61
X48.26Y-57.15
X48.26Y-59.69
X48.26Y-62.23
X50.8Y-46.99
X50.8Y-49.53
X50.8Y-59.69
X50.8Y-62.23
X53.34Y-46.99
X53.34Y-49.53
X80.404Y-67.462
X84.904Y-60.96
X53.34Y-59.69
X80.404Y-60.96
X84.904Y-67.462
X53.34Y-62.23
X55.88Y-46.99
X55.88Y-49.53
X55.88Y-52.07
X55.88Y-54.61
X55.88Y-57.15
X55.88Y-59.69
X55.88Y-62.23
X58.42Y-49.53
X58.42Y-52.07
X58.42Y-54.61
X58.42Y-57.15
X58.42Y-59.69
T5
X36.703Y-20.32
X36.703Y-23.09
X36.703Y-25.86
X36.703Y-28.63
X36.703Y-31.4
X39.543Y-21.705
X39.543Y-24.475
X39.543Y-27.245
X39.543Y-30.015
T6
X38.123Y-13.36
X38.123Y-38.36
T0
M30
