%TF.GenerationSoftware,KiCad,Pcbnew,5.99.0-unknown-52d8b70d3~93~ubuntu20.04.1*%
%TF.CreationDate,2020-11-25T22:41:27+01:00*%
%TF.ProjectId,ZX Dandanator Mini 2.1b,5a582044-616e-4646-916e-61746f72204d,rev?*%
%TF.SameCoordinates,PX6a2f1b0PY2a6a278*%
%TF.FileFunction,Legend,Top*%
%TF.FilePolarity,Positive*%
%FSLAX46Y46*%
G04 Gerber Fmt 4.6, Leading zero omitted, Abs format (unit mm)*
G04 Created by KiCad (PCBNEW 5.99.0-unknown-52d8b70d3~93~ubuntu20.04.1) date 2020-11-25 22:41:27*
%MOMM*%
%LPD*%
G01*
G04 APERTURE LIST*
%ADD10C,0.150000*%
%ADD11C,0.200000*%
%ADD12C,0.300000*%
%ADD13C,0.120000*%
%ADD14C,0.304800*%
%ADD15C,2.540000*%
%ADD16C,0.254000*%
G04 APERTURE END LIST*
D10*
X85344000Y-54610000D02*
X81153000Y-57785000D01*
X81153000Y-54610000D02*
X85344000Y-57785000D01*
X46863000Y-34671000D02*
X88646000Y-34671000D01*
X88646000Y-34671000D02*
X88646000Y-10922000D01*
X88646000Y-10922000D02*
X46863000Y-10922000D01*
X46863000Y-10922000D02*
X46863000Y-34671000D01*
D11*
X3914000Y-44591000D02*
X3914000Y-45091000D01*
D10*
X85753380Y-52752476D02*
X84753380Y-52752476D01*
X85753380Y-52181047D01*
X84753380Y-52181047D01*
X84753380Y-51514380D02*
X84753380Y-51323904D01*
X84801000Y-51228666D01*
X84896238Y-51133428D01*
X85086714Y-51085809D01*
X85420047Y-51085809D01*
X85610523Y-51133428D01*
X85705761Y-51228666D01*
X85753380Y-51323904D01*
X85753380Y-51514380D01*
X85705761Y-51609619D01*
X85610523Y-51704857D01*
X85420047Y-51752476D01*
X85086714Y-51752476D01*
X84896238Y-51704857D01*
X84801000Y-51609619D01*
X84753380Y-51514380D01*
X84753380Y-50800095D02*
X84753380Y-50228666D01*
X85753380Y-50514380D02*
X84753380Y-50514380D01*
X87363380Y-54181047D02*
X86363380Y-54181047D01*
X87363380Y-53704857D02*
X86363380Y-53704857D01*
X87363380Y-53133428D01*
X86363380Y-53133428D01*
X87315761Y-52704857D02*
X87363380Y-52562000D01*
X87363380Y-52323904D01*
X87315761Y-52228666D01*
X87268142Y-52181047D01*
X87172904Y-52133428D01*
X87077666Y-52133428D01*
X86982428Y-52181047D01*
X86934809Y-52228666D01*
X86887190Y-52323904D01*
X86839571Y-52514380D01*
X86791952Y-52609619D01*
X86744333Y-52657238D01*
X86649095Y-52704857D01*
X86553857Y-52704857D01*
X86458619Y-52657238D01*
X86411000Y-52609619D01*
X86363380Y-52514380D01*
X86363380Y-52276285D01*
X86411000Y-52133428D01*
X86363380Y-51847714D02*
X86363380Y-51276285D01*
X87363380Y-51562000D02*
X86363380Y-51562000D01*
X87077666Y-50990571D02*
X87077666Y-50514380D01*
X87363380Y-51085809D02*
X86363380Y-50752476D01*
X87363380Y-50419142D01*
X87363380Y-49609619D02*
X87363380Y-50085809D01*
X86363380Y-50085809D01*
X87363380Y-48800095D02*
X87363380Y-49276285D01*
X86363380Y-49276285D01*
D12*
X35967142Y-72640000D02*
X36681428Y-72640000D01*
X35824285Y-73068571D02*
X36324285Y-71568571D01*
X36824285Y-73068571D01*
X37538571Y-73068571D02*
X37395714Y-72997142D01*
X37324285Y-72854285D01*
X37324285Y-71568571D01*
X38681428Y-72997142D02*
X38538571Y-73068571D01*
X38252857Y-73068571D01*
X38110000Y-72997142D01*
X38038571Y-72854285D01*
X38038571Y-72282857D01*
X38110000Y-72140000D01*
X38252857Y-72068571D01*
X38538571Y-72068571D01*
X38681428Y-72140000D01*
X38752857Y-72282857D01*
X38752857Y-72425714D01*
X38038571Y-72568571D01*
X40038571Y-73068571D02*
X40038571Y-72282857D01*
X39967142Y-72140000D01*
X39824285Y-72068571D01*
X39538571Y-72068571D01*
X39395714Y-72140000D01*
X40038571Y-72997142D02*
X39895714Y-73068571D01*
X39538571Y-73068571D01*
X39395714Y-72997142D01*
X39324285Y-72854285D01*
X39324285Y-72711428D01*
X39395714Y-72568571D01*
X39538571Y-72497142D01*
X39895714Y-72497142D01*
X40038571Y-72425714D01*
X40824285Y-71568571D02*
X40681428Y-71854285D01*
X41395714Y-72997142D02*
X41538571Y-73068571D01*
X41824285Y-73068571D01*
X41967142Y-72997142D01*
X42038571Y-72854285D01*
X42038571Y-72782857D01*
X41967142Y-72640000D01*
X41824285Y-72568571D01*
X41610000Y-72568571D01*
X41467142Y-72497142D01*
X41395714Y-72354285D01*
X41395714Y-72282857D01*
X41467142Y-72140000D01*
X41610000Y-72068571D01*
X41824285Y-72068571D01*
X41967142Y-72140000D01*
X43824285Y-73068571D02*
X43824285Y-71568571D01*
X44324285Y-72640000D01*
X44824285Y-71568571D01*
X44824285Y-73068571D01*
X46181428Y-72068571D02*
X46181428Y-73068571D01*
X45538571Y-72068571D02*
X45538571Y-72854285D01*
X45610000Y-72997142D01*
X45752857Y-73068571D01*
X45967142Y-73068571D01*
X46110000Y-72997142D01*
X46181428Y-72925714D01*
X47110000Y-73068571D02*
X46967142Y-72997142D01*
X46895714Y-72854285D01*
X46895714Y-71568571D01*
X47467142Y-72068571D02*
X48038571Y-72068571D01*
X47681428Y-71568571D02*
X47681428Y-72854285D01*
X47752857Y-72997142D01*
X47895714Y-73068571D01*
X48038571Y-73068571D01*
X48538571Y-73068571D02*
X48538571Y-72068571D01*
X48538571Y-71568571D02*
X48467142Y-71640000D01*
X48538571Y-71711428D01*
X48610000Y-71640000D01*
X48538571Y-71568571D01*
X48538571Y-71711428D01*
X49252857Y-72068571D02*
X49252857Y-73568571D01*
X49252857Y-72140000D02*
X49395714Y-72068571D01*
X49681428Y-72068571D01*
X49824285Y-72140000D01*
X49895714Y-72211428D01*
X49967142Y-72354285D01*
X49967142Y-72782857D01*
X49895714Y-72925714D01*
X49824285Y-72997142D01*
X49681428Y-73068571D01*
X49395714Y-73068571D01*
X49252857Y-72997142D01*
X50824285Y-73068571D02*
X50681428Y-72997142D01*
X50610000Y-72854285D01*
X50610000Y-71568571D01*
X51252857Y-72068571D02*
X51610000Y-73068571D01*
X51967142Y-72068571D02*
X51610000Y-73068571D01*
X51467142Y-73425714D01*
X51395714Y-73497142D01*
X51252857Y-73568571D01*
X53681428Y-73068571D02*
X53681428Y-71568571D01*
X54395714Y-72068571D02*
X54395714Y-73068571D01*
X54395714Y-72211428D02*
X54467142Y-72140000D01*
X54610000Y-72068571D01*
X54824285Y-72068571D01*
X54967142Y-72140000D01*
X55038571Y-72282857D01*
X55038571Y-73068571D01*
X55538571Y-72068571D02*
X56110000Y-72068571D01*
X55752857Y-71568571D02*
X55752857Y-72854285D01*
X55824285Y-72997142D01*
X55967142Y-73068571D01*
X56110000Y-73068571D01*
X57181428Y-72997142D02*
X57038571Y-73068571D01*
X56752857Y-73068571D01*
X56610000Y-72997142D01*
X56538571Y-72854285D01*
X56538571Y-72282857D01*
X56610000Y-72140000D01*
X56752857Y-72068571D01*
X57038571Y-72068571D01*
X57181428Y-72140000D01*
X57252857Y-72282857D01*
X57252857Y-72425714D01*
X56538571Y-72568571D01*
X58538571Y-72068571D02*
X58538571Y-73282857D01*
X58467142Y-73425714D01*
X58395714Y-73497142D01*
X58252857Y-73568571D01*
X58038571Y-73568571D01*
X57895714Y-73497142D01*
X58538571Y-72997142D02*
X58395714Y-73068571D01*
X58110000Y-73068571D01*
X57967142Y-72997142D01*
X57895714Y-72925714D01*
X57824285Y-72782857D01*
X57824285Y-72354285D01*
X57895714Y-72211428D01*
X57967142Y-72140000D01*
X58110000Y-72068571D01*
X58395714Y-72068571D01*
X58538571Y-72140000D01*
X59252857Y-73068571D02*
X59252857Y-72068571D01*
X59252857Y-72354285D02*
X59324285Y-72211428D01*
X59395714Y-72140000D01*
X59538571Y-72068571D01*
X59681428Y-72068571D01*
X60824285Y-73068571D02*
X60824285Y-72282857D01*
X60752857Y-72140000D01*
X60610000Y-72068571D01*
X60324285Y-72068571D01*
X60181428Y-72140000D01*
X60824285Y-72997142D02*
X60681428Y-73068571D01*
X60324285Y-73068571D01*
X60181428Y-72997142D01*
X60110000Y-72854285D01*
X60110000Y-72711428D01*
X60181428Y-72568571D01*
X60324285Y-72497142D01*
X60681428Y-72497142D01*
X60824285Y-72425714D01*
X61324285Y-72068571D02*
X61895714Y-72068571D01*
X61538571Y-71568571D02*
X61538571Y-72854285D01*
X61610000Y-72997142D01*
X61752857Y-73068571D01*
X61895714Y-73068571D01*
X62967142Y-72997142D02*
X62824285Y-73068571D01*
X62538571Y-73068571D01*
X62395714Y-72997142D01*
X62324285Y-72854285D01*
X62324285Y-72282857D01*
X62395714Y-72140000D01*
X62538571Y-72068571D01*
X62824285Y-72068571D01*
X62967142Y-72140000D01*
X63038571Y-72282857D01*
X63038571Y-72425714D01*
X62324285Y-72568571D01*
X64324285Y-73068571D02*
X64324285Y-71568571D01*
X64324285Y-72997142D02*
X64181428Y-73068571D01*
X63895714Y-73068571D01*
X63752857Y-72997142D01*
X63681428Y-72925714D01*
X63610000Y-72782857D01*
X63610000Y-72354285D01*
X63681428Y-72211428D01*
X63752857Y-72140000D01*
X63895714Y-72068571D01*
X64181428Y-72068571D01*
X64324285Y-72140000D01*
X66181428Y-72282857D02*
X66681428Y-72282857D01*
X66895714Y-73068571D02*
X66181428Y-73068571D01*
X66181428Y-71568571D01*
X66895714Y-71568571D01*
X68181428Y-73068571D02*
X68181428Y-71568571D01*
X68181428Y-72997142D02*
X68038571Y-73068571D01*
X67752857Y-73068571D01*
X67610000Y-72997142D01*
X67538571Y-72925714D01*
X67467142Y-72782857D01*
X67467142Y-72354285D01*
X67538571Y-72211428D01*
X67610000Y-72140000D01*
X67752857Y-72068571D01*
X68038571Y-72068571D01*
X68181428Y-72140000D01*
X68895714Y-73068571D02*
X68895714Y-72068571D01*
X68895714Y-71568571D02*
X68824285Y-71640000D01*
X68895714Y-71711428D01*
X68967142Y-71640000D01*
X68895714Y-71568571D01*
X68895714Y-71711428D01*
X69395714Y-72068571D02*
X69967142Y-72068571D01*
X69610000Y-71568571D02*
X69610000Y-72854285D01*
X69681428Y-72997142D01*
X69824285Y-73068571D01*
X69967142Y-73068571D01*
X70467142Y-73068571D02*
X70467142Y-72068571D01*
X70467142Y-71568571D02*
X70395714Y-71640000D01*
X70467142Y-71711428D01*
X70538571Y-71640000D01*
X70467142Y-71568571D01*
X70467142Y-71711428D01*
X71395714Y-73068571D02*
X71252857Y-72997142D01*
X71181428Y-72925714D01*
X71110000Y-72782857D01*
X71110000Y-72354285D01*
X71181428Y-72211428D01*
X71252857Y-72140000D01*
X71395714Y-72068571D01*
X71610000Y-72068571D01*
X71752857Y-72140000D01*
X71824285Y-72211428D01*
X71895714Y-72354285D01*
X71895714Y-72782857D01*
X71824285Y-72925714D01*
X71752857Y-72997142D01*
X71610000Y-73068571D01*
X71395714Y-73068571D01*
X72538571Y-72068571D02*
X72538571Y-73068571D01*
X72538571Y-72211428D02*
X72610000Y-72140000D01*
X72752857Y-72068571D01*
X72967142Y-72068571D01*
X73110000Y-72140000D01*
X73181428Y-72282857D01*
X73181428Y-73068571D01*
D10*
X13756714Y-72080380D02*
X13756714Y-71080380D01*
X13994809Y-71080380D01*
X14137666Y-71128000D01*
X14232904Y-71223238D01*
X14280523Y-71318476D01*
X14328142Y-71508952D01*
X14328142Y-71651809D01*
X14280523Y-71842285D01*
X14232904Y-71937523D01*
X14137666Y-72032761D01*
X13994809Y-72080380D01*
X13756714Y-72080380D01*
X15137666Y-72032761D02*
X15042428Y-72080380D01*
X14851952Y-72080380D01*
X14756714Y-72032761D01*
X14709095Y-71937523D01*
X14709095Y-71556571D01*
X14756714Y-71461333D01*
X14851952Y-71413714D01*
X15042428Y-71413714D01*
X15137666Y-71461333D01*
X15185285Y-71556571D01*
X15185285Y-71651809D01*
X14709095Y-71747047D01*
X16042428Y-72032761D02*
X15947190Y-72080380D01*
X15756714Y-72080380D01*
X15661476Y-72032761D01*
X15613857Y-71985142D01*
X15566238Y-71889904D01*
X15566238Y-71604190D01*
X15613857Y-71508952D01*
X15661476Y-71461333D01*
X15756714Y-71413714D01*
X15947190Y-71413714D01*
X16042428Y-71461333D01*
X16851952Y-72032761D02*
X16756714Y-72080380D01*
X16566238Y-72080380D01*
X16471000Y-72032761D01*
X16423380Y-71937523D01*
X16423380Y-71556571D01*
X16471000Y-71461333D01*
X16566238Y-71413714D01*
X16756714Y-71413714D01*
X16851952Y-71461333D01*
X16899571Y-71556571D01*
X16899571Y-71651809D01*
X16423380Y-71747047D01*
X17328142Y-72080380D02*
X17328142Y-71413714D01*
X17328142Y-71508952D02*
X17375761Y-71461333D01*
X17471000Y-71413714D01*
X17613857Y-71413714D01*
X17709095Y-71461333D01*
X17756714Y-71556571D01*
X17756714Y-72080380D01*
X17756714Y-71556571D02*
X17804333Y-71461333D01*
X17899571Y-71413714D01*
X18042428Y-71413714D01*
X18137666Y-71461333D01*
X18185285Y-71556571D01*
X18185285Y-72080380D01*
X18661476Y-72080380D02*
X18661476Y-71080380D01*
X18661476Y-71461333D02*
X18756714Y-71413714D01*
X18947190Y-71413714D01*
X19042428Y-71461333D01*
X19090047Y-71508952D01*
X19137666Y-71604190D01*
X19137666Y-71889904D01*
X19090047Y-71985142D01*
X19042428Y-72032761D01*
X18947190Y-72080380D01*
X18756714Y-72080380D01*
X18661476Y-72032761D01*
X19947190Y-72032761D02*
X19851952Y-72080380D01*
X19661476Y-72080380D01*
X19566238Y-72032761D01*
X19518619Y-71937523D01*
X19518619Y-71556571D01*
X19566238Y-71461333D01*
X19661476Y-71413714D01*
X19851952Y-71413714D01*
X19947190Y-71461333D01*
X19994809Y-71556571D01*
X19994809Y-71651809D01*
X19518619Y-71747047D01*
X20423380Y-72080380D02*
X20423380Y-71413714D01*
X20423380Y-71604190D02*
X20471000Y-71508952D01*
X20518619Y-71461333D01*
X20613857Y-71413714D01*
X20709095Y-71413714D01*
X21756714Y-71175619D02*
X21804333Y-71128000D01*
X21899571Y-71080380D01*
X22137666Y-71080380D01*
X22232904Y-71128000D01*
X22280523Y-71175619D01*
X22328142Y-71270857D01*
X22328142Y-71366095D01*
X22280523Y-71508952D01*
X21709095Y-72080380D01*
X22328142Y-72080380D01*
X22947190Y-71080380D02*
X23042428Y-71080380D01*
X23137666Y-71128000D01*
X23185285Y-71175619D01*
X23232904Y-71270857D01*
X23280523Y-71461333D01*
X23280523Y-71699428D01*
X23232904Y-71889904D01*
X23185285Y-71985142D01*
X23137666Y-72032761D01*
X23042428Y-72080380D01*
X22947190Y-72080380D01*
X22851952Y-72032761D01*
X22804333Y-71985142D01*
X22756714Y-71889904D01*
X22709095Y-71699428D01*
X22709095Y-71461333D01*
X22756714Y-71270857D01*
X22804333Y-71175619D01*
X22851952Y-71128000D01*
X22947190Y-71080380D01*
X24232904Y-72080380D02*
X23661476Y-72080380D01*
X23947190Y-72080380D02*
X23947190Y-71080380D01*
X23851952Y-71223238D01*
X23756714Y-71318476D01*
X23661476Y-71366095D01*
X25090047Y-71080380D02*
X24899571Y-71080380D01*
X24804333Y-71128000D01*
X24756714Y-71175619D01*
X24661476Y-71318476D01*
X24613857Y-71508952D01*
X24613857Y-71889904D01*
X24661476Y-71985142D01*
X24709095Y-72032761D01*
X24804333Y-72080380D01*
X24994809Y-72080380D01*
X25090047Y-72032761D01*
X25137666Y-71985142D01*
X25185285Y-71889904D01*
X25185285Y-71651809D01*
X25137666Y-71556571D01*
X25090047Y-71508952D01*
X24994809Y-71461333D01*
X24804333Y-71461333D01*
X24709095Y-71508952D01*
X24661476Y-71556571D01*
X24613857Y-71651809D01*
X25613857Y-71699428D02*
X26375761Y-71699428D01*
X26804333Y-71175619D02*
X26851952Y-71128000D01*
X26947190Y-71080380D01*
X27185285Y-71080380D01*
X27280523Y-71128000D01*
X27328142Y-71175619D01*
X27375761Y-71270857D01*
X27375761Y-71366095D01*
X27328142Y-71508952D01*
X26756714Y-72080380D01*
X27375761Y-72080380D01*
X27994809Y-71080380D02*
X28090047Y-71080380D01*
X28185285Y-71128000D01*
X28232904Y-71175619D01*
X28280523Y-71270857D01*
X28328142Y-71461333D01*
X28328142Y-71699428D01*
X28280523Y-71889904D01*
X28232904Y-71985142D01*
X28185285Y-72032761D01*
X28090047Y-72080380D01*
X27994809Y-72080380D01*
X27899571Y-72032761D01*
X27851952Y-71985142D01*
X27804333Y-71889904D01*
X27756714Y-71699428D01*
X27756714Y-71461333D01*
X27804333Y-71270857D01*
X27851952Y-71175619D01*
X27899571Y-71128000D01*
X27994809Y-71080380D01*
X28709095Y-71175619D02*
X28756714Y-71128000D01*
X28851952Y-71080380D01*
X29090047Y-71080380D01*
X29185285Y-71128000D01*
X29232904Y-71175619D01*
X29280523Y-71270857D01*
X29280523Y-71366095D01*
X29232904Y-71508952D01*
X28661476Y-72080380D01*
X29280523Y-72080380D01*
X29899571Y-71080380D02*
X29994809Y-71080380D01*
X30090047Y-71128000D01*
X30137666Y-71175619D01*
X30185285Y-71270857D01*
X30232904Y-71461333D01*
X30232904Y-71699428D01*
X30185285Y-71889904D01*
X30137666Y-71985142D01*
X30090047Y-72032761D01*
X29994809Y-72080380D01*
X29899571Y-72080380D01*
X29804333Y-72032761D01*
X29756714Y-71985142D01*
X29709095Y-71889904D01*
X29661476Y-71699428D01*
X29661476Y-71461333D01*
X29709095Y-71270857D01*
X29756714Y-71175619D01*
X29804333Y-71128000D01*
X29899571Y-71080380D01*
D12*
X38360000Y-69028571D02*
X39360000Y-69028571D01*
X38360000Y-70528571D01*
X39360000Y-70528571D01*
X39788571Y-69028571D02*
X40788571Y-70528571D01*
X40788571Y-69028571D02*
X39788571Y-70528571D01*
X42502857Y-70528571D02*
X42502857Y-69028571D01*
X42860000Y-69028571D01*
X43074285Y-69100000D01*
X43217142Y-69242857D01*
X43288571Y-69385714D01*
X43360000Y-69671428D01*
X43360000Y-69885714D01*
X43288571Y-70171428D01*
X43217142Y-70314285D01*
X43074285Y-70457142D01*
X42860000Y-70528571D01*
X42502857Y-70528571D01*
X44645714Y-70528571D02*
X44645714Y-69742857D01*
X44574285Y-69600000D01*
X44431428Y-69528571D01*
X44145714Y-69528571D01*
X44002857Y-69600000D01*
X44645714Y-70457142D02*
X44502857Y-70528571D01*
X44145714Y-70528571D01*
X44002857Y-70457142D01*
X43931428Y-70314285D01*
X43931428Y-70171428D01*
X44002857Y-70028571D01*
X44145714Y-69957142D01*
X44502857Y-69957142D01*
X44645714Y-69885714D01*
X45360000Y-69528571D02*
X45360000Y-70528571D01*
X45360000Y-69671428D02*
X45431428Y-69600000D01*
X45574285Y-69528571D01*
X45788571Y-69528571D01*
X45931428Y-69600000D01*
X46002857Y-69742857D01*
X46002857Y-70528571D01*
X47360000Y-70528571D02*
X47360000Y-69028571D01*
X47360000Y-70457142D02*
X47217142Y-70528571D01*
X46931428Y-70528571D01*
X46788571Y-70457142D01*
X46717142Y-70385714D01*
X46645714Y-70242857D01*
X46645714Y-69814285D01*
X46717142Y-69671428D01*
X46788571Y-69600000D01*
X46931428Y-69528571D01*
X47217142Y-69528571D01*
X47360000Y-69600000D01*
X48717142Y-70528571D02*
X48717142Y-69742857D01*
X48645714Y-69600000D01*
X48502857Y-69528571D01*
X48217142Y-69528571D01*
X48074285Y-69600000D01*
X48717142Y-70457142D02*
X48574285Y-70528571D01*
X48217142Y-70528571D01*
X48074285Y-70457142D01*
X48002857Y-70314285D01*
X48002857Y-70171428D01*
X48074285Y-70028571D01*
X48217142Y-69957142D01*
X48574285Y-69957142D01*
X48717142Y-69885714D01*
X49431428Y-69528571D02*
X49431428Y-70528571D01*
X49431428Y-69671428D02*
X49502857Y-69600000D01*
X49645714Y-69528571D01*
X49860000Y-69528571D01*
X50002857Y-69600000D01*
X50074285Y-69742857D01*
X50074285Y-70528571D01*
X51431428Y-70528571D02*
X51431428Y-69742857D01*
X51360000Y-69600000D01*
X51217142Y-69528571D01*
X50931428Y-69528571D01*
X50788571Y-69600000D01*
X51431428Y-70457142D02*
X51288571Y-70528571D01*
X50931428Y-70528571D01*
X50788571Y-70457142D01*
X50717142Y-70314285D01*
X50717142Y-70171428D01*
X50788571Y-70028571D01*
X50931428Y-69957142D01*
X51288571Y-69957142D01*
X51431428Y-69885714D01*
X51931428Y-69528571D02*
X52502857Y-69528571D01*
X52145714Y-69028571D02*
X52145714Y-70314285D01*
X52217142Y-70457142D01*
X52360000Y-70528571D01*
X52502857Y-70528571D01*
X53217142Y-70528571D02*
X53074285Y-70457142D01*
X53002857Y-70385714D01*
X52931428Y-70242857D01*
X52931428Y-69814285D01*
X53002857Y-69671428D01*
X53074285Y-69600000D01*
X53217142Y-69528571D01*
X53431428Y-69528571D01*
X53574285Y-69600000D01*
X53645714Y-69671428D01*
X53717142Y-69814285D01*
X53717142Y-70242857D01*
X53645714Y-70385714D01*
X53574285Y-70457142D01*
X53431428Y-70528571D01*
X53217142Y-70528571D01*
X54360000Y-70528571D02*
X54360000Y-69528571D01*
X54360000Y-69814285D02*
X54431428Y-69671428D01*
X54502857Y-69600000D01*
X54645714Y-69528571D01*
X54788571Y-69528571D01*
X55288571Y-70385714D02*
X55360000Y-70457142D01*
X55288571Y-70528571D01*
X55217142Y-70457142D01*
X55288571Y-70385714D01*
X55288571Y-70528571D01*
X55288571Y-69957142D02*
X55217142Y-69100000D01*
X55288571Y-69028571D01*
X55360000Y-69100000D01*
X55288571Y-69957142D01*
X55288571Y-69028571D01*
X57145714Y-70528571D02*
X57145714Y-69028571D01*
X57645714Y-70100000D01*
X58145714Y-69028571D01*
X58145714Y-70528571D01*
X58860000Y-70528571D02*
X58860000Y-69528571D01*
X58860000Y-69028571D02*
X58788571Y-69100000D01*
X58860000Y-69171428D01*
X58931428Y-69100000D01*
X58860000Y-69028571D01*
X58860000Y-69171428D01*
X59574285Y-69528571D02*
X59574285Y-70528571D01*
X59574285Y-69671428D02*
X59645714Y-69600000D01*
X59788571Y-69528571D01*
X60002857Y-69528571D01*
X60145714Y-69600000D01*
X60217142Y-69742857D01*
X60217142Y-70528571D01*
X60931428Y-70528571D02*
X60931428Y-69528571D01*
X60931428Y-69028571D02*
X60860000Y-69100000D01*
X60931428Y-69171428D01*
X61002857Y-69100000D01*
X60931428Y-69028571D01*
X60931428Y-69171428D01*
X62717142Y-69171428D02*
X62788571Y-69100000D01*
X62931428Y-69028571D01*
X63288571Y-69028571D01*
X63431428Y-69100000D01*
X63502857Y-69171428D01*
X63574285Y-69314285D01*
X63574285Y-69457142D01*
X63502857Y-69671428D01*
X62645714Y-70528571D01*
X63574285Y-70528571D01*
X64217142Y-70385714D02*
X64288571Y-70457142D01*
X64217142Y-70528571D01*
X64145714Y-70457142D01*
X64217142Y-70385714D01*
X64217142Y-70528571D01*
X65717142Y-70528571D02*
X64860000Y-70528571D01*
X65288571Y-70528571D02*
X65288571Y-69028571D01*
X65145714Y-69242857D01*
X65002857Y-69385714D01*
X64860000Y-69457142D01*
X66288571Y-70100000D02*
X67002857Y-70100000D01*
X66145714Y-70528571D02*
X66645714Y-69028571D01*
X67145714Y-70528571D01*
X67645714Y-70528571D02*
X67645714Y-69028571D01*
X68145714Y-70100000D01*
X68645714Y-69028571D01*
X68645714Y-70528571D01*
X69360000Y-70528571D02*
X69360000Y-69028571D01*
X70074285Y-69742857D02*
X70574285Y-69742857D01*
X70788571Y-70528571D02*
X70074285Y-70528571D01*
X70074285Y-69028571D01*
X70788571Y-69028571D01*
D10*
X86447380Y-28764761D02*
X87161666Y-28764761D01*
X87304523Y-28812380D01*
X87399761Y-28907619D01*
X87447380Y-29050476D01*
X87447380Y-29145714D01*
X87447380Y-27812380D02*
X87447380Y-28288571D01*
X86447380Y-28288571D01*
X87352142Y-26907619D02*
X87399761Y-26955238D01*
X87447380Y-27098095D01*
X87447380Y-27193333D01*
X87399761Y-27336190D01*
X87304523Y-27431428D01*
X87209285Y-27479047D01*
X87018809Y-27526666D01*
X86875952Y-27526666D01*
X86685476Y-27479047D01*
X86590238Y-27431428D01*
X86495000Y-27336190D01*
X86447380Y-27193333D01*
X86447380Y-27098095D01*
X86495000Y-26955238D01*
X86542619Y-26907619D01*
X86447380Y-26193333D02*
X87161666Y-26193333D01*
X87304523Y-26240952D01*
X87399761Y-26336190D01*
X87447380Y-26479047D01*
X87447380Y-26574285D01*
X87447380Y-25240952D02*
X87447380Y-25717142D01*
X86447380Y-25717142D01*
X87352142Y-24336190D02*
X87399761Y-24383809D01*
X87447380Y-24526666D01*
X87447380Y-24621904D01*
X87399761Y-24764761D01*
X87304523Y-24860000D01*
X87209285Y-24907619D01*
X87018809Y-24955238D01*
X86875952Y-24955238D01*
X86685476Y-24907619D01*
X86590238Y-24860000D01*
X86495000Y-24764761D01*
X86447380Y-24621904D01*
X86447380Y-24526666D01*
X86495000Y-24383809D01*
X86542619Y-24336190D01*
X86447380Y-23621904D02*
X87161666Y-23621904D01*
X87304523Y-23669523D01*
X87399761Y-23764761D01*
X87447380Y-23907619D01*
X87447380Y-24002857D01*
X87447380Y-22669523D02*
X87447380Y-23145714D01*
X86447380Y-23145714D01*
X87352142Y-21764761D02*
X87399761Y-21812380D01*
X87447380Y-21955238D01*
X87447380Y-22050476D01*
X87399761Y-22193333D01*
X87304523Y-22288571D01*
X87209285Y-22336190D01*
X87018809Y-22383809D01*
X86875952Y-22383809D01*
X86685476Y-22336190D01*
X86590238Y-22288571D01*
X86495000Y-22193333D01*
X86447380Y-22050476D01*
X86447380Y-21955238D01*
X86495000Y-21812380D01*
X86542619Y-21764761D01*
X86447380Y-21050476D02*
X87161666Y-21050476D01*
X87304523Y-21098095D01*
X87399761Y-21193333D01*
X87447380Y-21336190D01*
X87447380Y-21431428D01*
X87447380Y-20098095D02*
X87447380Y-20574285D01*
X86447380Y-20574285D01*
X87352142Y-19193333D02*
X87399761Y-19240952D01*
X87447380Y-19383809D01*
X87447380Y-19479047D01*
X87399761Y-19621904D01*
X87304523Y-19717142D01*
X87209285Y-19764761D01*
X87018809Y-19812380D01*
X86875952Y-19812380D01*
X86685476Y-19764761D01*
X86590238Y-19717142D01*
X86495000Y-19621904D01*
X86447380Y-19479047D01*
X86447380Y-19383809D01*
X86495000Y-19240952D01*
X86542619Y-19193333D01*
X86447380Y-18479047D02*
X87161666Y-18479047D01*
X87304523Y-18526666D01*
X87399761Y-18621904D01*
X87447380Y-18764761D01*
X87447380Y-18860000D01*
X87447380Y-17526666D02*
X87447380Y-18002857D01*
X86447380Y-18002857D01*
X87352142Y-16621904D02*
X87399761Y-16669523D01*
X87447380Y-16812380D01*
X87447380Y-16907619D01*
X87399761Y-17050476D01*
X87304523Y-17145714D01*
X87209285Y-17193333D01*
X87018809Y-17240952D01*
X86875952Y-17240952D01*
X86685476Y-17193333D01*
X86590238Y-17145714D01*
X86495000Y-17050476D01*
X86447380Y-16907619D01*
X86447380Y-16812380D01*
X86495000Y-16669523D01*
X86542619Y-16621904D01*
%TO.C,C1*%
X78081142Y-42076666D02*
X78128761Y-42124285D01*
X78176380Y-42267142D01*
X78176380Y-42362380D01*
X78128761Y-42505238D01*
X78033523Y-42600476D01*
X77938285Y-42648095D01*
X77747809Y-42695714D01*
X77604952Y-42695714D01*
X77414476Y-42648095D01*
X77319238Y-42600476D01*
X77224000Y-42505238D01*
X77176380Y-42362380D01*
X77176380Y-42267142D01*
X77224000Y-42124285D01*
X77271619Y-42076666D01*
X78176380Y-41124285D02*
X78176380Y-41695714D01*
X78176380Y-41410000D02*
X77176380Y-41410000D01*
X77319238Y-41505238D01*
X77414476Y-41600476D01*
X77462095Y-41695714D01*
%TO.C,C2*%
X9953333Y-54538142D02*
X9905714Y-54585761D01*
X9762857Y-54633380D01*
X9667619Y-54633380D01*
X9524761Y-54585761D01*
X9429523Y-54490523D01*
X9381904Y-54395285D01*
X9334285Y-54204809D01*
X9334285Y-54061952D01*
X9381904Y-53871476D01*
X9429523Y-53776238D01*
X9524761Y-53681000D01*
X9667619Y-53633380D01*
X9762857Y-53633380D01*
X9905714Y-53681000D01*
X9953333Y-53728619D01*
X10334285Y-53728619D02*
X10381904Y-53681000D01*
X10477142Y-53633380D01*
X10715238Y-53633380D01*
X10810476Y-53681000D01*
X10858095Y-53728619D01*
X10905714Y-53823857D01*
X10905714Y-53919095D01*
X10858095Y-54061952D01*
X10286666Y-54633380D01*
X10905714Y-54633380D01*
%TO.C,C3*%
X83123333Y-54252142D02*
X83075714Y-54299761D01*
X82932857Y-54347380D01*
X82837619Y-54347380D01*
X82694761Y-54299761D01*
X82599523Y-54204523D01*
X82551904Y-54109285D01*
X82504285Y-53918809D01*
X82504285Y-53775952D01*
X82551904Y-53585476D01*
X82599523Y-53490238D01*
X82694761Y-53395000D01*
X82837619Y-53347380D01*
X82932857Y-53347380D01*
X83075714Y-53395000D01*
X83123333Y-53442619D01*
X83456666Y-53347380D02*
X84075714Y-53347380D01*
X83742380Y-53728333D01*
X83885238Y-53728333D01*
X83980476Y-53775952D01*
X84028095Y-53823571D01*
X84075714Y-53918809D01*
X84075714Y-54156904D01*
X84028095Y-54252142D01*
X83980476Y-54299761D01*
X83885238Y-54347380D01*
X83599523Y-54347380D01*
X83504285Y-54299761D01*
X83456666Y-54252142D01*
%TO.C,C4*%
X55673333Y-40067142D02*
X55625714Y-40114761D01*
X55482857Y-40162380D01*
X55387619Y-40162380D01*
X55244761Y-40114761D01*
X55149523Y-40019523D01*
X55101904Y-39924285D01*
X55054285Y-39733809D01*
X55054285Y-39590952D01*
X55101904Y-39400476D01*
X55149523Y-39305238D01*
X55244761Y-39210000D01*
X55387619Y-39162380D01*
X55482857Y-39162380D01*
X55625714Y-39210000D01*
X55673333Y-39257619D01*
X56530476Y-39495714D02*
X56530476Y-40162380D01*
X56292380Y-39114761D02*
X56054285Y-39829047D01*
X56673333Y-39829047D01*
%TO.C,C5*%
X27559333Y-35155142D02*
X27511714Y-35202761D01*
X27368857Y-35250380D01*
X27273619Y-35250380D01*
X27130761Y-35202761D01*
X27035523Y-35107523D01*
X26987904Y-35012285D01*
X26940285Y-34821809D01*
X26940285Y-34678952D01*
X26987904Y-34488476D01*
X27035523Y-34393238D01*
X27130761Y-34298000D01*
X27273619Y-34250380D01*
X27368857Y-34250380D01*
X27511714Y-34298000D01*
X27559333Y-34345619D01*
X28464095Y-34250380D02*
X27987904Y-34250380D01*
X27940285Y-34726571D01*
X27987904Y-34678952D01*
X28083142Y-34631333D01*
X28321238Y-34631333D01*
X28416476Y-34678952D01*
X28464095Y-34726571D01*
X28511714Y-34821809D01*
X28511714Y-35059904D01*
X28464095Y-35155142D01*
X28416476Y-35202761D01*
X28321238Y-35250380D01*
X28083142Y-35250380D01*
X27987904Y-35202761D01*
X27940285Y-35155142D01*
%TO.C,U1*%
X69088095Y-36492380D02*
X69088095Y-37301904D01*
X69135714Y-37397142D01*
X69183333Y-37444761D01*
X69278571Y-37492380D01*
X69469047Y-37492380D01*
X69564285Y-37444761D01*
X69611904Y-37397142D01*
X69659523Y-37301904D01*
X69659523Y-36492380D01*
X70659523Y-37492380D02*
X70088095Y-37492380D01*
X70373809Y-37492380D02*
X70373809Y-36492380D01*
X70278571Y-36635238D01*
X70183333Y-36730476D01*
X70088095Y-36778095D01*
X70302380Y-54450714D02*
X69302380Y-54450714D01*
X69302380Y-54069761D01*
X69350000Y-53974523D01*
X69397619Y-53926904D01*
X69492857Y-53879285D01*
X69635714Y-53879285D01*
X69730952Y-53926904D01*
X69778571Y-53974523D01*
X69826190Y-54069761D01*
X69826190Y-54450714D01*
X70302380Y-53450714D02*
X69302380Y-53450714D01*
X70207142Y-52403095D02*
X70254761Y-52450714D01*
X70302380Y-52593571D01*
X70302380Y-52688809D01*
X70254761Y-52831666D01*
X70159523Y-52926904D01*
X70064285Y-52974523D01*
X69873809Y-53022142D01*
X69730952Y-53022142D01*
X69540476Y-52974523D01*
X69445238Y-52926904D01*
X69350000Y-52831666D01*
X69302380Y-52688809D01*
X69302380Y-52593571D01*
X69350000Y-52450714D01*
X69397619Y-52403095D01*
X70302380Y-51450714D02*
X70302380Y-52022142D01*
X70302380Y-51736428D02*
X69302380Y-51736428D01*
X69445238Y-51831666D01*
X69540476Y-51926904D01*
X69588095Y-52022142D01*
X69302380Y-50593571D02*
X69302380Y-50784047D01*
X69350000Y-50879285D01*
X69397619Y-50926904D01*
X69540476Y-51022142D01*
X69730952Y-51069761D01*
X70111904Y-51069761D01*
X70207142Y-51022142D01*
X70254761Y-50974523D01*
X70302380Y-50879285D01*
X70302380Y-50688809D01*
X70254761Y-50593571D01*
X70207142Y-50545952D01*
X70111904Y-50498333D01*
X69873809Y-50498333D01*
X69778571Y-50545952D01*
X69730952Y-50593571D01*
X69683333Y-50688809D01*
X69683333Y-50879285D01*
X69730952Y-50974523D01*
X69778571Y-51022142D01*
X69873809Y-51069761D01*
X69778571Y-49736428D02*
X69778571Y-50069761D01*
X70302380Y-50069761D02*
X69302380Y-50069761D01*
X69302380Y-49593571D01*
X70302380Y-48688809D02*
X70302380Y-49260238D01*
X70302380Y-48974523D02*
X69302380Y-48974523D01*
X69445238Y-49069761D01*
X69540476Y-49165000D01*
X69588095Y-49260238D01*
X69730952Y-48117380D02*
X69683333Y-48212619D01*
X69635714Y-48260238D01*
X69540476Y-48307857D01*
X69492857Y-48307857D01*
X69397619Y-48260238D01*
X69350000Y-48212619D01*
X69302380Y-48117380D01*
X69302380Y-47926904D01*
X69350000Y-47831666D01*
X69397619Y-47784047D01*
X69492857Y-47736428D01*
X69540476Y-47736428D01*
X69635714Y-47784047D01*
X69683333Y-47831666D01*
X69730952Y-47926904D01*
X69730952Y-48117380D01*
X69778571Y-48212619D01*
X69826190Y-48260238D01*
X69921428Y-48307857D01*
X70111904Y-48307857D01*
X70207142Y-48260238D01*
X70254761Y-48212619D01*
X70302380Y-48117380D01*
X70302380Y-47926904D01*
X70254761Y-47831666D01*
X70207142Y-47784047D01*
X70111904Y-47736428D01*
X69921428Y-47736428D01*
X69826190Y-47784047D01*
X69778571Y-47831666D01*
X69730952Y-47926904D01*
X69397619Y-47355476D02*
X69350000Y-47307857D01*
X69302380Y-47212619D01*
X69302380Y-46974523D01*
X69350000Y-46879285D01*
X69397619Y-46831666D01*
X69492857Y-46784047D01*
X69588095Y-46784047D01*
X69730952Y-46831666D01*
X70302380Y-47403095D01*
X70302380Y-46784047D01*
X69302380Y-45926904D02*
X69302380Y-46117380D01*
X69350000Y-46212619D01*
X69397619Y-46260238D01*
X69540476Y-46355476D01*
X69730952Y-46403095D01*
X70111904Y-46403095D01*
X70207142Y-46355476D01*
X70254761Y-46307857D01*
X70302380Y-46212619D01*
X70302380Y-46022142D01*
X70254761Y-45926904D01*
X70207142Y-45879285D01*
X70111904Y-45831666D01*
X69873809Y-45831666D01*
X69778571Y-45879285D01*
X69730952Y-45926904D01*
X69683333Y-46022142D01*
X69683333Y-46212619D01*
X69730952Y-46307857D01*
X69778571Y-46355476D01*
X69873809Y-46403095D01*
%TO.C,SW2*%
X81320666Y-59459761D02*
X81463523Y-59507380D01*
X81701619Y-59507380D01*
X81796857Y-59459761D01*
X81844476Y-59412142D01*
X81892095Y-59316904D01*
X81892095Y-59221666D01*
X81844476Y-59126428D01*
X81796857Y-59078809D01*
X81701619Y-59031190D01*
X81511142Y-58983571D01*
X81415904Y-58935952D01*
X81368285Y-58888333D01*
X81320666Y-58793095D01*
X81320666Y-58697857D01*
X81368285Y-58602619D01*
X81415904Y-58555000D01*
X81511142Y-58507380D01*
X81749238Y-58507380D01*
X81892095Y-58555000D01*
X82225428Y-58507380D02*
X82463523Y-59507380D01*
X82654000Y-58793095D01*
X82844476Y-59507380D01*
X83082571Y-58507380D01*
X83415904Y-58602619D02*
X83463523Y-58555000D01*
X83558761Y-58507380D01*
X83796857Y-58507380D01*
X83892095Y-58555000D01*
X83939714Y-58602619D01*
X83987333Y-58697857D01*
X83987333Y-58793095D01*
X83939714Y-58935952D01*
X83368285Y-59507380D01*
X83987333Y-59507380D01*
%TO.C,R2*%
X85796380Y-41822666D02*
X85320190Y-42156000D01*
X85796380Y-42394095D02*
X84796380Y-42394095D01*
X84796380Y-42013142D01*
X84844000Y-41917904D01*
X84891619Y-41870285D01*
X84986857Y-41822666D01*
X85129714Y-41822666D01*
X85224952Y-41870285D01*
X85272571Y-41917904D01*
X85320190Y-42013142D01*
X85320190Y-42394095D01*
X84891619Y-41441714D02*
X84844000Y-41394095D01*
X84796380Y-41298857D01*
X84796380Y-41060761D01*
X84844000Y-40965523D01*
X84891619Y-40917904D01*
X84986857Y-40870285D01*
X85082095Y-40870285D01*
X85224952Y-40917904D01*
X85796380Y-41489333D01*
X85796380Y-40870285D01*
X83002380Y-42505238D02*
X83002380Y-43076666D01*
X83002380Y-42790952D02*
X82002380Y-42790952D01*
X82145238Y-42886190D01*
X82240476Y-42981428D01*
X82288095Y-43076666D01*
X82002380Y-41886190D02*
X82002380Y-41790952D01*
X82050000Y-41695714D01*
X82097619Y-41648095D01*
X82192857Y-41600476D01*
X82383333Y-41552857D01*
X82621428Y-41552857D01*
X82811904Y-41600476D01*
X82907142Y-41648095D01*
X82954761Y-41695714D01*
X83002380Y-41790952D01*
X83002380Y-41886190D01*
X82954761Y-41981428D01*
X82907142Y-42029047D01*
X82811904Y-42076666D01*
X82621428Y-42124285D01*
X82383333Y-42124285D01*
X82192857Y-42076666D01*
X82097619Y-42029047D01*
X82050000Y-41981428D01*
X82002380Y-41886190D01*
X83002380Y-41124285D02*
X82002380Y-41124285D01*
X82621428Y-41029047D02*
X83002380Y-40743333D01*
X82335714Y-40743333D02*
X82716666Y-41124285D01*
%TO.C,U2*%
X22352095Y-37806380D02*
X22352095Y-38615904D01*
X22399714Y-38711142D01*
X22447333Y-38758761D01*
X22542571Y-38806380D01*
X22733047Y-38806380D01*
X22828285Y-38758761D01*
X22875904Y-38711142D01*
X22923523Y-38615904D01*
X22923523Y-37806380D01*
X23352095Y-37901619D02*
X23399714Y-37854000D01*
X23494952Y-37806380D01*
X23733047Y-37806380D01*
X23828285Y-37854000D01*
X23875904Y-37901619D01*
X23923523Y-37996857D01*
X23923523Y-38092095D01*
X23875904Y-38234952D01*
X23304476Y-38806380D01*
X23923523Y-38806380D01*
X25154000Y-57514761D02*
X25106380Y-57610000D01*
X25106380Y-57752857D01*
X25154000Y-57895714D01*
X25249238Y-57990952D01*
X25344476Y-58038571D01*
X25534952Y-58086190D01*
X25677809Y-58086190D01*
X25868285Y-58038571D01*
X25963523Y-57990952D01*
X26058761Y-57895714D01*
X26106380Y-57752857D01*
X26106380Y-57657619D01*
X26058761Y-57514761D01*
X26011142Y-57467142D01*
X25677809Y-57467142D01*
X25677809Y-57657619D01*
X25820666Y-57086190D02*
X25820666Y-56610000D01*
X26106380Y-57181428D02*
X25106380Y-56848095D01*
X26106380Y-56514761D01*
X26106380Y-55705238D02*
X26106380Y-56181428D01*
X25106380Y-56181428D01*
X25201619Y-55419523D02*
X25154000Y-55371904D01*
X25106380Y-55276666D01*
X25106380Y-55038571D01*
X25154000Y-54943333D01*
X25201619Y-54895714D01*
X25296857Y-54848095D01*
X25392095Y-54848095D01*
X25534952Y-54895714D01*
X26106380Y-55467142D01*
X26106380Y-54848095D01*
X25201619Y-54467142D02*
X25154000Y-54419523D01*
X25106380Y-54324285D01*
X25106380Y-54086190D01*
X25154000Y-53990952D01*
X25201619Y-53943333D01*
X25296857Y-53895714D01*
X25392095Y-53895714D01*
X25534952Y-53943333D01*
X26106380Y-54514761D01*
X26106380Y-53895714D01*
X25106380Y-53610000D02*
X26106380Y-53276666D01*
X25106380Y-52943333D01*
X26106380Y-52086190D02*
X26106380Y-52657619D01*
X26106380Y-52371904D02*
X25106380Y-52371904D01*
X25249238Y-52467142D01*
X25344476Y-52562380D01*
X25392095Y-52657619D01*
X25106380Y-51467142D02*
X25106380Y-51371904D01*
X25154000Y-51276666D01*
X25201619Y-51229047D01*
X25296857Y-51181428D01*
X25487333Y-51133809D01*
X25725428Y-51133809D01*
X25915904Y-51181428D01*
X26011142Y-51229047D01*
X26058761Y-51276666D01*
X26106380Y-51371904D01*
X26106380Y-51467142D01*
X26058761Y-51562380D01*
X26011142Y-51610000D01*
X25915904Y-51657619D01*
X25725428Y-51705238D01*
X25487333Y-51705238D01*
X25296857Y-51657619D01*
X25201619Y-51610000D01*
X25154000Y-51562380D01*
X25106380Y-51467142D01*
%TO.C,J1*%
X24662666Y-76541380D02*
X24662666Y-77255666D01*
X24615047Y-77398523D01*
X24519809Y-77493761D01*
X24376952Y-77541380D01*
X24281714Y-77541380D01*
X25662666Y-77541380D02*
X25091238Y-77541380D01*
X25376952Y-77541380D02*
X25376952Y-76541380D01*
X25281714Y-76684238D01*
X25186476Y-76779476D01*
X25091238Y-76827095D01*
%TO.C,J2*%
X86257666Y-2652380D02*
X86257666Y-3366666D01*
X86210047Y-3509523D01*
X86114809Y-3604761D01*
X85971952Y-3652380D01*
X85876714Y-3652380D01*
X86686238Y-2747619D02*
X86733857Y-2700000D01*
X86829095Y-2652380D01*
X87067190Y-2652380D01*
X87162428Y-2700000D01*
X87210047Y-2747619D01*
X87257666Y-2842857D01*
X87257666Y-2938095D01*
X87210047Y-3080952D01*
X86638619Y-3652380D01*
X87257666Y-3652380D01*
%TO.C,R1*%
X34742380Y-48426666D02*
X34266190Y-48760000D01*
X34742380Y-48998095D02*
X33742380Y-48998095D01*
X33742380Y-48617142D01*
X33790000Y-48521904D01*
X33837619Y-48474285D01*
X33932857Y-48426666D01*
X34075714Y-48426666D01*
X34170952Y-48474285D01*
X34218571Y-48521904D01*
X34266190Y-48617142D01*
X34266190Y-48998095D01*
X34742380Y-47474285D02*
X34742380Y-48045714D01*
X34742380Y-47760000D02*
X33742380Y-47760000D01*
X33885238Y-47855238D01*
X33980476Y-47950476D01*
X34028095Y-48045714D01*
X37282380Y-50125238D02*
X37282380Y-50696666D01*
X37282380Y-50410952D02*
X36282380Y-50410952D01*
X36425238Y-50506190D01*
X36520476Y-50601428D01*
X36568095Y-50696666D01*
X36282380Y-49506190D02*
X36282380Y-49410952D01*
X36330000Y-49315714D01*
X36377619Y-49268095D01*
X36472857Y-49220476D01*
X36663333Y-49172857D01*
X36901428Y-49172857D01*
X37091904Y-49220476D01*
X37187142Y-49268095D01*
X37234761Y-49315714D01*
X37282380Y-49410952D01*
X37282380Y-49506190D01*
X37234761Y-49601428D01*
X37187142Y-49649047D01*
X37091904Y-49696666D01*
X36901428Y-49744285D01*
X36663333Y-49744285D01*
X36472857Y-49696666D01*
X36377619Y-49649047D01*
X36330000Y-49601428D01*
X36282380Y-49506190D01*
X37282380Y-48744285D02*
X36282380Y-48744285D01*
X36901428Y-48649047D02*
X37282380Y-48363333D01*
X36615714Y-48363333D02*
X36996666Y-48744285D01*
%TO.C,SW1*%
X8826666Y-59030570D02*
X8969523Y-59078189D01*
X9207619Y-59078189D01*
X9302857Y-59030570D01*
X9350476Y-58982951D01*
X9398095Y-58887713D01*
X9398095Y-58792475D01*
X9350476Y-58697237D01*
X9302857Y-58649618D01*
X9207619Y-58601999D01*
X9017142Y-58554380D01*
X8921904Y-58506761D01*
X8874285Y-58459142D01*
X8826666Y-58363904D01*
X8826666Y-58268666D01*
X8874285Y-58173428D01*
X8921904Y-58125809D01*
X9017142Y-58078189D01*
X9255238Y-58078189D01*
X9398095Y-58125809D01*
X9731428Y-58078189D02*
X9969523Y-59078189D01*
X10160000Y-58363904D01*
X10350476Y-59078189D01*
X10588571Y-58078189D01*
X11493333Y-59078189D02*
X10921904Y-59078189D01*
X11207619Y-59078189D02*
X11207619Y-58078189D01*
X11112380Y-58221047D01*
X11017142Y-58316285D01*
X10921904Y-58363904D01*
%TO.C,U3*%
X40900095Y-43215380D02*
X40900095Y-44024904D01*
X40947714Y-44120142D01*
X40995333Y-44167761D01*
X41090571Y-44215380D01*
X41281047Y-44215380D01*
X41376285Y-44167761D01*
X41423904Y-44120142D01*
X41471523Y-44024904D01*
X41471523Y-43215380D01*
X41852476Y-43215380D02*
X42471523Y-43215380D01*
X42138190Y-43596333D01*
X42281047Y-43596333D01*
X42376285Y-43643952D01*
X42423904Y-43691571D01*
X42471523Y-43786809D01*
X42471523Y-44024904D01*
X42423904Y-44120142D01*
X42376285Y-44167761D01*
X42281047Y-44215380D01*
X41995333Y-44215380D01*
X41900095Y-44167761D01*
X41852476Y-44120142D01*
X42314761Y-58149523D02*
X42362380Y-58006666D01*
X42362380Y-57768571D01*
X42314761Y-57673333D01*
X42267142Y-57625714D01*
X42171904Y-57578095D01*
X42076666Y-57578095D01*
X41981428Y-57625714D01*
X41933809Y-57673333D01*
X41886190Y-57768571D01*
X41838571Y-57959047D01*
X41790952Y-58054285D01*
X41743333Y-58101904D01*
X41648095Y-58149523D01*
X41552857Y-58149523D01*
X41457619Y-58101904D01*
X41410000Y-58054285D01*
X41362380Y-57959047D01*
X41362380Y-57720952D01*
X41410000Y-57578095D01*
X42314761Y-57197142D02*
X42362380Y-57054285D01*
X42362380Y-56816190D01*
X42314761Y-56720952D01*
X42267142Y-56673333D01*
X42171904Y-56625714D01*
X42076666Y-56625714D01*
X41981428Y-56673333D01*
X41933809Y-56720952D01*
X41886190Y-56816190D01*
X41838571Y-57006666D01*
X41790952Y-57101904D01*
X41743333Y-57149523D01*
X41648095Y-57197142D01*
X41552857Y-57197142D01*
X41457619Y-57149523D01*
X41410000Y-57101904D01*
X41362380Y-57006666D01*
X41362380Y-56768571D01*
X41410000Y-56625714D01*
X41362380Y-56340000D02*
X41362380Y-55768571D01*
X42362380Y-56054285D02*
X41362380Y-56054285D01*
X41362380Y-54768571D02*
X41362380Y-54149523D01*
X41743333Y-54482857D01*
X41743333Y-54340000D01*
X41790952Y-54244761D01*
X41838571Y-54197142D01*
X41933809Y-54149523D01*
X42171904Y-54149523D01*
X42267142Y-54197142D01*
X42314761Y-54244761D01*
X42362380Y-54340000D01*
X42362380Y-54625714D01*
X42314761Y-54720952D01*
X42267142Y-54768571D01*
X42362380Y-53673333D02*
X42362380Y-53482857D01*
X42314761Y-53387619D01*
X42267142Y-53340000D01*
X42124285Y-53244761D01*
X41933809Y-53197142D01*
X41552857Y-53197142D01*
X41457619Y-53244761D01*
X41410000Y-53292380D01*
X41362380Y-53387619D01*
X41362380Y-53578095D01*
X41410000Y-53673333D01*
X41457619Y-53720952D01*
X41552857Y-53768571D01*
X41790952Y-53768571D01*
X41886190Y-53720952D01*
X41933809Y-53673333D01*
X41981428Y-53578095D01*
X41981428Y-53387619D01*
X41933809Y-53292380D01*
X41886190Y-53244761D01*
X41790952Y-53197142D01*
X42314761Y-52816190D02*
X42362380Y-52673333D01*
X42362380Y-52435238D01*
X42314761Y-52340000D01*
X42267142Y-52292380D01*
X42171904Y-52244761D01*
X42076666Y-52244761D01*
X41981428Y-52292380D01*
X41933809Y-52340000D01*
X41886190Y-52435238D01*
X41838571Y-52625714D01*
X41790952Y-52720952D01*
X41743333Y-52768571D01*
X41648095Y-52816190D01*
X41552857Y-52816190D01*
X41457619Y-52768571D01*
X41410000Y-52720952D01*
X41362380Y-52625714D01*
X41362380Y-52387619D01*
X41410000Y-52244761D01*
X41838571Y-51482857D02*
X41838571Y-51816190D01*
X42362380Y-51816190D02*
X41362380Y-51816190D01*
X41362380Y-51340000D01*
X41362380Y-50768571D02*
X41362380Y-50673333D01*
X41410000Y-50578095D01*
X41457619Y-50530476D01*
X41552857Y-50482857D01*
X41743333Y-50435238D01*
X41981428Y-50435238D01*
X42171904Y-50482857D01*
X42267142Y-50530476D01*
X42314761Y-50578095D01*
X42362380Y-50673333D01*
X42362380Y-50768571D01*
X42314761Y-50863809D01*
X42267142Y-50911428D01*
X42171904Y-50959047D01*
X41981428Y-51006666D01*
X41743333Y-51006666D01*
X41552857Y-50959047D01*
X41457619Y-50911428D01*
X41410000Y-50863809D01*
X41362380Y-50768571D01*
X41695714Y-49578095D02*
X42362380Y-49578095D01*
X41314761Y-49816190D02*
X42029047Y-50054285D01*
X42029047Y-49435238D01*
X41362380Y-48863809D02*
X41362380Y-48768571D01*
X41410000Y-48673333D01*
X41457619Y-48625714D01*
X41552857Y-48578095D01*
X41743333Y-48530476D01*
X41981428Y-48530476D01*
X42171904Y-48578095D01*
X42267142Y-48625714D01*
X42314761Y-48673333D01*
X42362380Y-48768571D01*
X42362380Y-48863809D01*
X42314761Y-48959047D01*
X42267142Y-49006666D01*
X42171904Y-49054285D01*
X41981428Y-49101904D01*
X41743333Y-49101904D01*
X41552857Y-49054285D01*
X41457619Y-49006666D01*
X41410000Y-48959047D01*
X41362380Y-48863809D01*
%TO.C,D1*%
X69111904Y-63102380D02*
X69111904Y-62102380D01*
X69350000Y-62102380D01*
X69492857Y-62150000D01*
X69588095Y-62245238D01*
X69635714Y-62340476D01*
X69683333Y-62530952D01*
X69683333Y-62673809D01*
X69635714Y-62864285D01*
X69588095Y-62959523D01*
X69492857Y-63054761D01*
X69350000Y-63102380D01*
X69111904Y-63102380D01*
X70635714Y-63102380D02*
X70064285Y-63102380D01*
X70350000Y-63102380D02*
X70350000Y-62102380D01*
X70254761Y-62245238D01*
X70159523Y-62340476D01*
X70064285Y-62388095D01*
X65778095Y-63422380D02*
X65778095Y-62422380D01*
X66349523Y-63422380D02*
X65920952Y-62850952D01*
X66349523Y-62422380D02*
X65778095Y-62993809D01*
%TO.C,D2*%
X8326380Y-30202095D02*
X7326380Y-30202095D01*
X7326380Y-29964000D01*
X7374000Y-29821142D01*
X7469238Y-29725904D01*
X7564476Y-29678285D01*
X7754952Y-29630666D01*
X7897809Y-29630666D01*
X8088285Y-29678285D01*
X8183523Y-29725904D01*
X8278761Y-29821142D01*
X8326380Y-29964000D01*
X8326380Y-30202095D01*
X7421619Y-29249714D02*
X7374000Y-29202095D01*
X7326380Y-29106857D01*
X7326380Y-28868761D01*
X7374000Y-28773523D01*
X7421619Y-28725904D01*
X7516857Y-28678285D01*
X7612095Y-28678285D01*
X7754952Y-28725904D01*
X8326380Y-29297333D01*
X8326380Y-28678285D01*
X6272380Y-39631904D02*
X5272380Y-39631904D01*
X6272380Y-39060476D02*
X5700952Y-39489047D01*
X5272380Y-39060476D02*
X5843809Y-39631904D01*
%TO.C,DB1*%
X30932380Y-14573095D02*
X29932380Y-14573095D01*
X29932380Y-14335000D01*
X29980000Y-14192142D01*
X30075238Y-14096904D01*
X30170476Y-14049285D01*
X30360952Y-14001666D01*
X30503809Y-14001666D01*
X30694285Y-14049285D01*
X30789523Y-14096904D01*
X30884761Y-14192142D01*
X30932380Y-14335000D01*
X30932380Y-14573095D01*
X30408571Y-13239761D02*
X30456190Y-13096904D01*
X30503809Y-13049285D01*
X30599047Y-13001666D01*
X30741904Y-13001666D01*
X30837142Y-13049285D01*
X30884761Y-13096904D01*
X30932380Y-13192142D01*
X30932380Y-13573095D01*
X29932380Y-13573095D01*
X29932380Y-13239761D01*
X29980000Y-13144523D01*
X30027619Y-13096904D01*
X30122857Y-13049285D01*
X30218095Y-13049285D01*
X30313333Y-13096904D01*
X30360952Y-13144523D01*
X30408571Y-13239761D01*
X30408571Y-13573095D01*
X30932380Y-12049285D02*
X30932380Y-12620714D01*
X30932380Y-12335000D02*
X29932380Y-12335000D01*
X30075238Y-12430238D01*
X30170476Y-12525476D01*
X30218095Y-12620714D01*
%TO.C,J3*%
X50339666Y-14013380D02*
X50339666Y-14727666D01*
X50292047Y-14870523D01*
X50196809Y-14965761D01*
X50053952Y-15013380D01*
X49958714Y-15013380D01*
X50720619Y-14013380D02*
X51339666Y-14013380D01*
X51006333Y-14394333D01*
X51149190Y-14394333D01*
X51244428Y-14441952D01*
X51292047Y-14489571D01*
X51339666Y-14584809D01*
X51339666Y-14822904D01*
X51292047Y-14918142D01*
X51244428Y-14965761D01*
X51149190Y-15013380D01*
X50863476Y-15013380D01*
X50768238Y-14965761D01*
X50720619Y-14918142D01*
%TO.C,A1*%
X9683857Y-6042000D02*
X10255285Y-6042000D01*
X9569571Y-6384857D02*
X9969571Y-5184857D01*
X10369571Y-6384857D01*
X11398142Y-6384857D02*
X10712428Y-6384857D01*
X11055285Y-6384857D02*
X11055285Y-5184857D01*
X10941000Y-5356285D01*
X10826714Y-5470571D01*
X10712428Y-5527714D01*
%TO.C,R3*%
X13406380Y-26582666D02*
X12930190Y-26916000D01*
X13406380Y-27154095D02*
X12406380Y-27154095D01*
X12406380Y-26773142D01*
X12454000Y-26677904D01*
X12501619Y-26630285D01*
X12596857Y-26582666D01*
X12739714Y-26582666D01*
X12834952Y-26630285D01*
X12882571Y-26677904D01*
X12930190Y-26773142D01*
X12930190Y-27154095D01*
X12406380Y-26249333D02*
X12406380Y-25630285D01*
X12787333Y-25963619D01*
X12787333Y-25820761D01*
X12834952Y-25725523D01*
X12882571Y-25677904D01*
X12977809Y-25630285D01*
X13215904Y-25630285D01*
X13311142Y-25677904D01*
X13358761Y-25725523D01*
X13406380Y-25820761D01*
X13406380Y-26106476D01*
X13358761Y-26201714D01*
X13311142Y-26249333D01*
X13152380Y-35361428D02*
X13152380Y-35932857D01*
X13152380Y-35647142D02*
X12152380Y-35647142D01*
X12295238Y-35742380D01*
X12390476Y-35837619D01*
X12438095Y-35932857D01*
X12152380Y-34742380D02*
X12152380Y-34647142D01*
X12200000Y-34551904D01*
X12247619Y-34504285D01*
X12342857Y-34456666D01*
X12533333Y-34409047D01*
X12771428Y-34409047D01*
X12961904Y-34456666D01*
X13057142Y-34504285D01*
X13104761Y-34551904D01*
X13152380Y-34647142D01*
X13152380Y-34742380D01*
X13104761Y-34837619D01*
X13057142Y-34885238D01*
X12961904Y-34932857D01*
X12771428Y-34980476D01*
X12533333Y-34980476D01*
X12342857Y-34932857D01*
X12247619Y-34885238D01*
X12200000Y-34837619D01*
X12152380Y-34742380D01*
X12152380Y-33790000D02*
X12152380Y-33694761D01*
X12200000Y-33599523D01*
X12247619Y-33551904D01*
X12342857Y-33504285D01*
X12533333Y-33456666D01*
X12771428Y-33456666D01*
X12961904Y-33504285D01*
X13057142Y-33551904D01*
X13104761Y-33599523D01*
X13152380Y-33694761D01*
X13152380Y-33790000D01*
X13104761Y-33885238D01*
X13057142Y-33932857D01*
X12961904Y-33980476D01*
X12771428Y-34028095D01*
X12533333Y-34028095D01*
X12342857Y-33980476D01*
X12247619Y-33932857D01*
X12200000Y-33885238D01*
X12152380Y-33790000D01*
X13152380Y-33028095D02*
X12152380Y-33028095D01*
X12771428Y-32932857D02*
X13152380Y-32647142D01*
X12485714Y-32647142D02*
X12866666Y-33028095D01*
%TO.C,J4*%
X2841666Y-52621380D02*
X2841666Y-53335666D01*
X2794047Y-53478523D01*
X2698809Y-53573761D01*
X2555952Y-53621380D01*
X2460714Y-53621380D01*
X3746428Y-52954714D02*
X3746428Y-53621380D01*
X3508333Y-52573761D02*
X3270238Y-53288047D01*
X3889285Y-53288047D01*
D13*
%TO.C,C1*%
X78615000Y-44760000D02*
X78630000Y-44760000D01*
X78615000Y-49300000D02*
X78630000Y-49300000D01*
X76490000Y-49300000D02*
X76505000Y-49300000D01*
X76490000Y-49300000D02*
X76490000Y-44760000D01*
X78630000Y-49300000D02*
X78630000Y-44760000D01*
X76490000Y-44760000D02*
X76505000Y-44760000D01*
%TO.C,C2*%
X7850000Y-55311000D02*
X7850000Y-55326000D01*
X12390000Y-55311000D02*
X12390000Y-55326000D01*
X12390000Y-57436000D02*
X12390000Y-57451000D01*
X7850000Y-57451000D02*
X12390000Y-57451000D01*
X7850000Y-57436000D02*
X7850000Y-57451000D01*
X7850000Y-55311000D02*
X12390000Y-55311000D01*
%TO.C,C3*%
X85560000Y-57150000D02*
X85560000Y-57165000D01*
X81020000Y-55025000D02*
X85560000Y-55025000D01*
X81020000Y-55025000D02*
X81020000Y-55040000D01*
X81020000Y-57150000D02*
X81020000Y-57165000D01*
X81020000Y-57165000D02*
X85560000Y-57165000D01*
X85560000Y-55025000D02*
X85560000Y-55040000D01*
%TO.C,C4*%
X53570000Y-42965000D02*
X53570000Y-42980000D01*
X58110000Y-42965000D02*
X58110000Y-42980000D01*
X53570000Y-40840000D02*
X53570000Y-40855000D01*
X58110000Y-40840000D02*
X58110000Y-40855000D01*
X53570000Y-42980000D02*
X58110000Y-42980000D01*
X53570000Y-40840000D02*
X58110000Y-40840000D01*
%TO.C,C5*%
X25456000Y-37900000D02*
X25456000Y-37885000D01*
X29996000Y-37900000D02*
X25456000Y-37900000D01*
X29996000Y-37900000D02*
X29996000Y-37885000D01*
X29996000Y-35775000D02*
X29996000Y-35760000D01*
X29996000Y-35760000D02*
X25456000Y-35760000D01*
X25456000Y-35775000D02*
X25456000Y-35760000D01*
%TO.C,U1*%
X68850000Y-38040000D02*
X67600000Y-38040000D01*
X72100000Y-38040000D02*
X70850000Y-38040000D01*
X67600000Y-61020000D02*
X72100000Y-61020000D01*
X72100000Y-61020000D02*
X72100000Y-38040000D01*
X67600000Y-38040000D02*
X67600000Y-61020000D01*
X70850000Y-38040000D02*
G75*
G02*
X68850000Y-38040000I-1000000J0D01*
G01*
D14*
%TO.C,SW2*%
X85702000Y-61925200D02*
X85702000Y-66497200D01*
X83670000Y-67259200D02*
X81638000Y-67259200D01*
X81638000Y-61163200D02*
X83670000Y-61163200D01*
X79606000Y-66497200D02*
X79606000Y-61925200D01*
D15*
X83457219Y-64211200D02*
G75*
G03*
X83457219Y-64211200I-803219J0D01*
G01*
D13*
%TO.C,R2*%
X84024000Y-38640000D02*
X81284000Y-38640000D01*
X82654000Y-37870000D02*
X82654000Y-38640000D01*
X81284000Y-45180000D02*
X84024000Y-45180000D01*
X81284000Y-38640000D02*
X81284000Y-45180000D01*
X82654000Y-45950000D02*
X82654000Y-45180000D01*
X84024000Y-45180000D02*
X84024000Y-38640000D01*
%TO.C,U2*%
X23404000Y-39564000D02*
X23404000Y-70164000D01*
X27904000Y-70164000D02*
X27904000Y-39564000D01*
X27904000Y-39564000D02*
X26654000Y-39564000D01*
X23404000Y-70164000D02*
X27904000Y-70164000D01*
X24654000Y-39564000D02*
X23404000Y-39564000D01*
X26654000Y-39564000D02*
G75*
G02*
X24654000Y-39564000I-1000000J0D01*
G01*
%TO.C,R1*%
X35460000Y-52800000D02*
X38200000Y-52800000D01*
X38200000Y-52800000D02*
X38200000Y-46260000D01*
X35460000Y-46260000D02*
X35460000Y-52800000D01*
X36830000Y-53570000D02*
X36830000Y-52800000D01*
X36830000Y-45490000D02*
X36830000Y-46260000D01*
X38200000Y-46260000D02*
X35460000Y-46260000D01*
D14*
%TO.C,SW1*%
X7112000Y-66497200D02*
X7112000Y-61925200D01*
X13208000Y-61925200D02*
X13208000Y-66497200D01*
X11176000Y-67259200D02*
X9144000Y-67259200D01*
X9144000Y-61163200D02*
X11176000Y-61163200D01*
D15*
X10963219Y-64211200D02*
G75*
G03*
X10963219Y-64211200I-803219J0D01*
G01*
D16*
%TO.C,U3*%
X57150000Y-60960000D02*
X57150000Y-48895000D01*
X59690000Y-46355000D02*
X59055000Y-45720000D01*
X46990000Y-48895000D02*
X46990000Y-60325000D01*
X57150000Y-48895000D02*
X59690000Y-46355000D01*
X44450000Y-62865000D02*
X46990000Y-60325000D01*
X47625000Y-60960000D02*
X45085000Y-63500000D01*
X59055000Y-45720000D02*
X56515000Y-48260000D01*
X42969180Y-64909700D02*
X42969180Y-46111160D01*
X47625000Y-48260000D02*
X46990000Y-48895000D01*
X44770040Y-44307760D02*
X42969180Y-46108620D01*
X45085000Y-63500000D02*
X44450000Y-62865000D01*
X61170820Y-44310300D02*
X61170820Y-64909700D01*
X47625000Y-48260000D02*
X56515000Y-48260000D01*
X61170820Y-44310300D02*
X44770040Y-44310300D01*
X57150000Y-60960000D02*
X47625000Y-60960000D01*
X42969180Y-64909700D02*
X61170820Y-64909700D01*
D13*
%TO.C,D1*%
X68450000Y-63650000D02*
X68450000Y-65890000D01*
X71970000Y-65890000D02*
X71970000Y-63650000D01*
X67730000Y-65890000D02*
X71970000Y-65890000D01*
X68330000Y-63650000D02*
X68330000Y-65890000D01*
X72620000Y-64770000D02*
X71970000Y-64770000D01*
X67730000Y-63650000D02*
X67730000Y-65890000D01*
X67080000Y-64770000D02*
X67730000Y-64770000D01*
X71970000Y-63650000D02*
X67730000Y-63650000D01*
X68570000Y-63650000D02*
X68570000Y-65890000D01*
%TO.C,D2*%
X8740000Y-33440000D02*
X6500000Y-33440000D01*
X6500000Y-33440000D02*
X6500000Y-37680000D01*
X8740000Y-37680000D02*
X8740000Y-33440000D01*
X6500000Y-36960000D02*
X8740000Y-36960000D01*
X6500000Y-37680000D02*
X8740000Y-37680000D01*
X7620000Y-38330000D02*
X7620000Y-37680000D01*
X6500000Y-37080000D02*
X8740000Y-37080000D01*
X6500000Y-36840000D02*
X8740000Y-36840000D01*
X7620000Y-32790000D02*
X7620000Y-33440000D01*
%TO.C,DB1*%
X32873000Y-10375000D02*
X43373000Y-10375000D01*
X36061256Y-33726470D02*
X40761256Y-32897733D01*
X31813000Y-40285000D02*
X31813000Y-11435000D01*
X30918662Y-20070000D02*
X31351675Y-20320000D01*
X30918662Y-20570000D02*
X30918662Y-20070000D01*
X42133000Y-31262952D02*
X42133000Y-20457048D01*
X34113000Y-32091689D02*
X34113000Y-19628311D01*
X44433000Y-11435000D02*
X44433000Y-40285000D01*
X31351675Y-20320000D02*
X30918662Y-20570000D01*
X43373000Y-41345000D02*
X32873000Y-41345000D01*
X36061256Y-17993530D02*
X40761256Y-18822267D01*
X36061256Y-33726470D02*
G75*
G02*
X34113000Y-32091689I-288256J1634781D01*
G01*
X32873000Y-10375000D02*
G75*
G03*
X31813000Y-11435000I0J-1060000D01*
G01*
X36061256Y-17993530D02*
G75*
G03*
X34113000Y-19628311I-288256J-1634781D01*
G01*
X40761256Y-32897733D02*
G75*
G03*
X42133000Y-31262952I-288256J1634781D01*
G01*
X40761256Y-18822267D02*
G75*
G02*
X42133000Y-20457048I-288256J-1634781D01*
G01*
X44433000Y-11435000D02*
G75*
G03*
X43373000Y-10375000I-1060000J0D01*
G01*
X31813000Y-40285000D02*
G75*
G03*
X32873000Y-41345000I1060000J0D01*
G01*
X44433000Y-40285000D02*
G75*
G02*
X43373000Y-41345000I-1060000J0D01*
G01*
%TO.C,J3*%
X49343000Y-16891000D02*
X49343000Y-15561000D01*
X49343000Y-30921000D02*
X52003000Y-30921000D01*
X49343000Y-18161000D02*
X52003000Y-18161000D01*
X49343000Y-18161000D02*
X49343000Y-30921000D01*
X49343000Y-15561000D02*
X50673000Y-15561000D01*
X52003000Y-18161000D02*
X52003000Y-30921000D01*
D10*
%TO.C,A1*%
X6350000Y-49530000D02*
X8890000Y-49530000D01*
X1270000Y-52070000D02*
X19050000Y-52070000D01*
X13970000Y-52070000D02*
X13970000Y-46990000D01*
X6350000Y-15240000D02*
X6350000Y-6985000D01*
X6350000Y-46990000D02*
X6350000Y-52070000D01*
X1270000Y-8890000D02*
X6350000Y-8890000D01*
X8890000Y-49530000D02*
X8890000Y-52070000D01*
X6350000Y-6985000D02*
X13970000Y-6985000D01*
X13970000Y-46990000D02*
X6350000Y-46990000D01*
X13970000Y-6985000D02*
X13970000Y-15240000D01*
X1270000Y-8890000D02*
X1270000Y-52070000D01*
X13970000Y-15240000D02*
X6350000Y-15240000D01*
X13970000Y-8890000D02*
X19050000Y-8890000D01*
X19050000Y-52070000D02*
X19050000Y-8890000D01*
X10795000Y-48260000D02*
G75*
G03*
X10795000Y-48260000I-635000J0D01*
G01*
X3175000Y-10160000D02*
G75*
G03*
X3175000Y-10160000I-635000J0D01*
G01*
X8255000Y-48260000D02*
G75*
G03*
X8255000Y-48260000I-635000J0D01*
G01*
X13335000Y-48260000D02*
G75*
G03*
X13335000Y-48260000I-635000J0D01*
G01*
X18415000Y-10160000D02*
G75*
G03*
X18415000Y-10160000I-635000J0D01*
G01*
X18415000Y-50800000D02*
G75*
G03*
X18415000Y-50800000I-635000J0D01*
G01*
X3175000Y-50800000D02*
G75*
G03*
X3175000Y-50800000I-635000J0D01*
G01*
X13335000Y-50800000D02*
G75*
G03*
X13335000Y-50800000I-635000J0D01*
G01*
X8255000Y-50800000D02*
G75*
G03*
X8255000Y-50800000I-635000J0D01*
G01*
X10795000Y-50800000D02*
G75*
G03*
X10795000Y-50800000I-635000J0D01*
G01*
D13*
%TO.C,R3*%
X12700000Y-30250000D02*
X12700000Y-31020000D01*
X12700000Y-38330000D02*
X12700000Y-37560000D01*
X11330000Y-31020000D02*
X11330000Y-37560000D01*
X14070000Y-37560000D02*
X14070000Y-31020000D01*
X11330000Y-37560000D02*
X14070000Y-37560000D01*
X14070000Y-31020000D02*
X11330000Y-31020000D01*
%TO.C,J4*%
X4505000Y-56769000D02*
X4505000Y-66989000D01*
X1845000Y-55499000D02*
X1845000Y-54169000D01*
X1845000Y-56769000D02*
X4505000Y-56769000D01*
X1845000Y-66989000D02*
X4505000Y-66989000D01*
X1845000Y-54169000D02*
X3175000Y-54169000D01*
X1845000Y-56769000D02*
X1845000Y-66989000D01*
%TD*%
M02*
